<?xml version="1.0" encoding="UTF-8"?>
<!DOCTYPE svg PUBLIC "-//W3C//DTD SVG 1.1//EN" "http://www.w3.org/Graphics/SVG/1.1/DTD/svg11.dtd">
<svg xmlns="http://www.w3.org/2000/svg" version="1.1" width="1385px" height="1028px" style="shape-rendering:geometricPrecision; text-rendering:geometricPrecision; image-rendering:optimizeQuality; fill-rule:evenodd; clip-rule:evenodd" xmlns:xlink="http://www.w3.org/1999/xlink">
<g><path style="opacity:1" fill="#fbfafa" d="M 1171.5,14.5 C 1223.25,12.8127 1274.59,16.6461 1325.5,26C 1336.42,29.5277 1347.42,32.861 1358.5,36C 1362.5,38 1366.5,40 1370.5,42C 1372.35,44.5791 1372.85,47.4124 1372,50.5C 1370.02,52.7635 1367.85,54.9302 1365.5,57C 1324.2,70.2002 1290.03,93.7002 1263,127.5C 1260.1,133.461 1256.77,139.128 1253,144.5C 1251.22,150.067 1248.88,155.401 1246,160.5C 1241.68,173.443 1237.85,186.443 1234.5,199.5C 1212.76,204.244 1192.43,212.411 1173.5,224C 1148.21,240.289 1126.37,260.456 1108,284.5C 1094.69,303.128 1086.52,323.628 1083.5,346C 1081.3,355.782 1079.3,365.615 1077.5,375.5C 1076.97,376.192 1076.31,376.692 1075.5,377C 1039.84,379.159 1011.84,394.826 991.5,424C 999.141,430.764 1001.31,438.93 998,448.5C 996.055,449.863 993.888,450.697 991.5,451C 990.636,453.071 989.303,454.738 987.5,456C 982.522,455.949 977.522,455.782 972.5,455.5C 971.031,461.405 968.864,467.071 966,472.5C 959.583,479.142 953.083,479.142 946.5,472.5C 942.892,475.925 939.059,476.259 935,473.5C 928.205,476.358 922.205,475.025 917,469.5C 917.225,475.828 916.058,481.828 913.5,487.5C 911.664,488.919 909.664,490.086 907.5,491C 852.138,491.179 796.805,491.679 741.5,492.5C 741.167,537.505 741.5,582.505 742.5,627.5C 797.459,628.329 852.459,628.829 907.5,629C 912,630.167 914.833,633 916,637.5C 916.667,657.5 916.667,677.5 916,697.5C 914.833,702 912,704.833 907.5,706C 835.167,706.667 762.833,706.667 690.5,706C 676.251,704.141 663.251,699.141 651.5,691C 640.962,681.428 634.462,669.595 632,655.5C 631.333,591.833 631.333,528.167 632,464.5C 634.023,452.956 638.856,442.789 646.5,434C 614.832,411.133 579.832,404.133 541.5,413C 559.9,413.689 576.567,419.355 591.5,430C 601.217,439.932 607.383,451.765 610,465.5C 610.667,484.167 610.667,502.833 610,521.5C 608.347,532.968 603.847,543.135 596.5,552C 603.312,561.125 607.812,571.292 610,582.5C 610.667,606.5 610.667,630.5 610,654.5C 607.233,670.214 599.733,683.047 587.5,693C 576.136,700.121 563.802,704.455 550.5,706C 483.5,706.667 416.5,706.667 349.5,706C 345,704.833 342.167,702 341,697.5C 340.333,677.5 340.333,657.5 341,637.5C 342.167,633 345,630.167 349.5,629C 398.833,628.667 448.167,628.333 497.5,628C 498.416,627.626 499.25,627.126 500,626.5C 500.667,616.167 500.667,605.833 500,595.5C 499.25,594.874 498.416,594.374 497.5,594C 460.167,593.667 422.833,593.333 385.5,593C 381,591.833 378.167,589 377,584.5C 376.333,564.5 376.333,544.5 377,524.5C 378.167,520 381,517.167 385.5,516C 422.167,515.667 458.833,515.333 495.5,515C 497.101,514.727 498.601,514.227 500,513.5C 500.811,506.586 500.645,499.752 499.5,493C 449.583,491.676 399.583,491.009 349.5,491C 345,489.833 342.167,487 341,482.5C 340.333,462.5 340.333,442.5 341,422.5C 342.167,418 345,415.167 349.5,414C 401.167,413.667 452.833,413.333 504.5,413C 495.862,399.698 485.196,388.364 472.5,379C 453.712,369.348 434.712,369.014 415.5,378C 408.658,382.171 401.492,385.671 394,388.5C 388.144,387.131 386.144,383.464 388,377.5C 399.411,353.679 411.077,330.013 423,306.5C 453.055,254.442 495.222,215.609 549.5,190C 573.723,181.491 598.39,180.158 623.5,186C 642.796,189.82 661.129,196.32 678.5,205.5C 679.463,184.782 680.963,164.116 683,143.5C 684.585,136.998 687.252,130.998 691,125.5C 700.483,117.129 710.65,116.296 721.5,123C 724.704,125.869 727.537,129.035 730,132.5C 742.932,153.533 752.432,176.033 758.5,200C 765.159,199.006 771.825,197.672 778.5,196C 789.439,162.61 805.939,132.443 828,105.5C 836.01,96.5023 845.843,90.3356 857.5,87C 863.284,85.4914 868.117,86.9914 872,91.5C 878.627,104.339 882.294,118.006 883,132.5C 885.219,154.592 884.886,176.592 882,198.5C 912.042,154.79 948.542,117.29 991.5,86C 1018.49,67.1631 1046.49,49.8297 1075.5,34C 1090.28,27.6853 1105.44,23.5186 1121,21.5C 1137.85,18.541 1154.68,16.2077 1171.5,14.5 Z"/></g>
<g><path style="opacity:1" fill="#5c3013" d="M 916.5,436.5 C 928.395,441.578 939.395,448.078 949.5,456C 950.332,456.688 950.998,456.521 951.5,455.5C 939.485,435.464 927.485,415.464 915.5,395.5C 906.771,400.197 897.771,404.364 888.5,408C 881.214,409.327 873.88,410.327 866.5,411C 867.381,411.708 868.047,412.542 868.5,413.5C 865.167,413.5 861.833,413.5 858.5,413.5C 858.67,412.178 858.337,411.011 857.5,410C 840.248,407.847 823.248,404.514 806.5,400C 797.289,395.662 790.122,389.162 785,380.5C 784.089,383.576 782.256,385.909 779.5,387.5C 769.03,380.816 764.03,371.149 764.5,358.5C 759.578,364.391 756.078,363.725 754,356.5C 751.316,344.443 752.483,332.776 757.5,321.5C 747.188,320.501 736.855,320.168 726.5,320.5C 714.357,319.37 702.357,316.87 690.5,313C 678.059,308.908 672.559,300.408 674,287.5C 677.464,273.572 684.297,261.572 694.5,251.5C 690.691,242.406 687.691,233.072 685.5,223.5C 659.875,211.68 633.208,203.18 605.5,198C 599.859,196.928 594.193,196.595 588.5,197C 594.568,200.399 600.068,204.565 605,209.5C 614.874,224.581 623.707,240.248 631.5,256.5C 652.846,308.203 670.179,361.203 683.5,415.5C 681.139,415.674 678.806,416.007 676.5,416.5C 666.245,378.15 654.745,340.15 642,302.5C 631.021,272.885 618.187,244.218 603.5,216.5C 598.795,208.129 592.128,201.795 583.5,197.5C 575.178,204.792 569.344,213.792 566,224.5C 558.195,247.1 550.695,269.766 543.5,292.5C 538.933,305.766 535.433,319.432 533,333.5C 528.427,358.421 525.26,383.421 523.5,408.5C 540.826,397.332 559.826,392.832 580.5,395C 609.577,397.3 635.91,406.8 659.5,423.5C 656.738,425.725 653.738,427.725 650.5,429.5C 617.688,406.869 582.021,399.369 543.5,407C 538.387,408.723 533.387,410.723 528.5,413C 522.141,413.831 515.807,413.664 509.5,412.5C 500.446,395.278 487.446,381.778 470.5,372C 452.935,364.674 434.935,364.674 416.5,372C 408.561,376.143 400.561,379.977 392.5,383.5C 406.529,348.1 423.529,314.767 443.5,283.5C 466.488,253.681 493.821,228.515 525.5,208C 542.185,197.885 560.018,190.718 579,186.5C 606.969,186.827 633.969,192.16 660,202.5C 668.539,205.609 676.873,209.942 685,215.5C 684.307,193.147 684.974,170.814 687,148.5C 688.126,137.064 693.626,128.564 703.5,123C 708.28,121.97 712.613,122.97 716.5,126C 722.465,130.959 727.298,136.792 731,143.5C 741.4,163.213 749.067,183.546 754,204.5C 754.388,205.428 755.055,206.095 756,206.5C 764.812,204.396 773.645,202.396 782.5,200.5C 793.99,163.495 812.657,130.828 838.5,102.5C 844.212,97.9749 850.546,94.4749 857.5,92C 862.345,90.8371 866.179,92.3371 869,96.5C 871.427,100.54 873.094,104.874 874,109.5C 880.954,136.803 881.954,164.47 877,192.5C 874.793,204.398 870.293,215.232 863.5,225C 864,225.5 864.5,226 865,226.5C 868.676,224.585 872.176,222.585 875.5,220.5C 887.741,219.436 899.741,220.936 911.5,225C 916.33,226.823 919.33,230.157 920.5,235C 941.219,242.718 955.719,256.885 964,277.5C 968.027,288.134 970.193,299.134 970.5,310.5C 969.084,334.929 961.084,356.763 946.5,376C 951.133,390.6 958.133,403.933 967.5,416C 971.039,416.187 974.205,417.354 977,419.5C 999.271,393.609 1027.1,376.775 1060.5,369C 1061.43,368.612 1062.09,367.945 1062.5,367C 1052.33,341.484 1046.5,314.984 1045,287.5C 1043.1,243.659 1044.93,199.992 1050.5,156.5C 1053.68,120.769 1061.01,85.9361 1072.5,52C 1072.17,51.5 1071.83,51 1071.5,50.5C 1032.58,72.1159 995.918,96.9492 961.5,125C 934.89,149.94 910.057,176.44 887,204.5C 883.809,209.564 880.642,214.564 877.5,219.5C 877.259,216.206 878.092,213.206 880,210.5C 912.604,160.226 953.771,118.059 1003.5,84C 1027.82,67.674 1052.66,52.174 1078,37.5C 1106.82,28.1049 1136.65,22.2716 1167.5,20C 1229.51,16.6344 1290.51,22.9677 1350.5,39C 1356.74,41.1175 1362.74,43.7841 1368.5,47C 1366.46,49.3745 1364.13,51.3745 1361.5,53C 1335.28,61.2732 1311.61,73.9399 1290.5,91C 1282.03,99.473 1273.53,107.973 1265,116.5C 1252.69,132.627 1243.52,150.127 1237.5,169C 1236.17,174 1234.83,179 1233.5,184C 1233.64,184.772 1233.98,185.439 1234.5,186C 1232.98,189.037 1231.65,192.203 1230.5,195.5C 1198.96,202.774 1170.96,216.607 1146.5,237C 1120.14,257.946 1100.14,283.279 1086.5,313C 1083.8,321.798 1080.97,330.965 1078,340.5C 1076.42,351.498 1074.92,362.498 1073.5,373.5C 1041.29,374.19 1014.79,386.856 994,411.5C 990.833,415.833 987.667,420.167 984.5,424.5C 988.238,428.069 991.404,432.069 994,436.5C 994.667,439.167 994.667,441.833 994,444.5C 992,445.833 990,445.833 988,444.5C 986.282,446.202 986.115,448.035 987.5,450C 984.49,452.222 981.99,451.722 980,448.5C 976.4,451.354 973.4,450.687 971,446.5C 969.325,448.591 968.825,450.758 969.5,453C 966.727,459.543 963.394,465.876 959.5,472C 957.421,472.808 955.421,472.641 953.5,471.5C 949.778,468.685 945.945,466.019 942,463.5C 941.5,463.667 941,463.833 940.5,464C 942.933,466.348 942.933,468.515 940.5,470.5C 935.855,467.023 931.355,463.356 927,459.5C 928.256,462.648 930.09,465.648 932.5,468.5C 932.113,469.72 931.28,470.387 930,470.5C 924.226,469.062 919.893,465.728 917,460.5C 916.5,452.507 916.334,444.507 916.5,436.5 Z"/></g>
<g><path style="opacity:1" fill="#656d80" d="M 1202.5,28.5 C 1220.63,31.6539 1236.13,39.9873 1249,53.5C 1258.53,67.1309 1258.87,81.1309 1250,95.5C 1237.04,113.214 1219.54,120.38 1197.5,117C 1188.39,114.852 1179.72,111.518 1171.5,107C 1161.6,100.251 1151.6,93.7508 1141.5,87.5C 1128.17,73.6595 1113.5,61.4929 1097.5,51C 1092.83,49 1088.17,47 1083.5,45C 1099.6,38.7125 1116.27,34.7125 1133.5,33C 1156.38,29.6018 1179.38,28.1018 1202.5,28.5 Z"/></g>
<g><path style="opacity:1" fill="#4e5467" d="M 1202.5,28.5 C 1252.21,29.1959 1300.87,36.3625 1348.5,50C 1292.13,69.7021 1253.63,107.535 1233,163.5C 1231.23,171.852 1229.4,180.186 1227.5,188.5C 1220,175.829 1211.5,163.829 1202,152.5C 1181.63,130.964 1161.46,109.297 1141.5,87.5C 1151.6,93.7508 1161.6,100.251 1171.5,107C 1179.72,111.518 1188.39,114.852 1197.5,117C 1219.54,120.38 1237.04,113.214 1250,95.5C 1258.87,81.1309 1258.53,67.1309 1249,53.5C 1236.13,39.9873 1220.63,31.6539 1202.5,28.5 Z"/></g>
<g><path style="opacity:1" fill="#656d80" d="M 1144.5,102.5 C 1155.08,144.37 1147.58,182.703 1122,217.5C 1113.35,227.237 1102.85,234.071 1090.5,238C 1078.53,239.267 1069.37,234.767 1063,224.5C 1058.33,215.663 1055.17,206.33 1053.5,196.5C 1055.93,146.372 1063.43,97.0386 1076,48.5C 1077.39,47.4464 1078.89,47.2797 1080.5,48C 1089.23,54.3923 1098.23,60.3923 1107.5,66C 1121,77.0036 1133.34,89.1703 1144.5,102.5 Z"/></g>
<g><path style="opacity:1" fill="#656d80" d="M 1050.5,156.5 C 1049.67,148.01 1049.17,139.343 1049,130.5C 1038.95,154.113 1032.95,178.779 1031,204.5C 1029.38,231.53 1027.38,258.53 1025,285.5C 1016.54,314.812 998.373,323.145 970.5,310.5C 970.193,299.134 968.027,288.134 964,277.5C 955.719,256.885 941.219,242.718 920.5,235C 919.33,230.157 916.33,226.823 911.5,225C 899.741,220.936 887.741,219.436 875.5,220.5C 875.842,219.662 876.508,219.328 877.5,219.5C 880.642,214.564 883.809,209.564 887,204.5C 910.057,176.44 934.89,149.94 961.5,125C 995.918,96.9492 1032.58,72.1159 1071.5,50.5C 1071.83,51 1072.17,51.5 1072.5,52C 1061.01,85.9361 1053.68,120.769 1050.5,156.5 Z"/></g>
<g><path style="opacity:1" fill="#926c5f" d="M 866.5,114.5 C 866.5,119.167 866.5,123.833 866.5,128.5C 865.774,125.029 864.44,121.696 862.5,118.5C 859.751,114.829 856.084,113.663 851.5,115C 843.511,118.982 836.677,124.482 831,131.5C 819.035,148.424 808.868,166.424 800.5,185.5C 797.68,193.254 796.847,201.254 798,209.5C 799.563,212.728 802.063,214.895 805.5,216C 823.292,219.476 840.292,217.31 856.5,209.5C 854.15,218 848.483,222.167 839.5,222C 850.686,240.505 848.352,257.172 832.5,272C 815.348,285.283 796.014,293.95 774.5,298C 767.841,299.276 761.174,300.443 754.5,301.5C 756.435,300.19 758.435,298.857 760.5,297.5C 761.833,296.833 761.833,296.167 760.5,295.5C 752.549,299.237 744.216,301.571 735.5,302.5C 719.754,304.251 705.088,301.084 691.5,293C 688.667,290.167 685.833,287.333 683,284.5C 681.872,282.655 681.372,280.655 681.5,278.5C 687.396,266.713 695.229,256.38 705,247.5C 704.595,251.121 704.595,254.787 705,258.5C 707.649,267.417 712.816,269.417 720.5,264.5C 724.78,257.092 724.447,249.925 719.5,243C 717.5,242.167 715.5,241.333 713.5,240.5C 715.65,238.851 717.65,237.018 719.5,235C 711.5,238.521 704.167,243.355 697.5,249.5C 696.749,248.624 696.249,247.624 696,246.5C 694.978,231.086 693.312,215.753 691,200.5C 690.333,186.833 690.333,173.167 691,159.5C 692.088,150.479 694.422,141.812 698,133.5C 699.255,131.406 701.088,130.406 703.5,130.5C 707.703,131.268 711.37,133.102 714.5,136C 733.452,157.405 745.285,182.239 750,210.5C 748.385,211.386 746.885,212.386 745.5,213.5C 742.592,214.159 742.258,214.993 744.5,216C 741.312,218.432 738.312,221.099 735.5,224C 743.097,222.183 750.763,220.183 758.5,218C 765.363,216.423 772.196,216.257 779,217.5C 779.717,216.956 780.217,216.289 780.5,215.5C 781.735,212.699 783.235,210.032 785,207.5C 794.255,176.99 808.255,148.99 827,123.5C 833.583,114.915 841.416,107.748 850.5,102C 859.409,101.393 864.742,105.56 866.5,114.5 Z"/></g>
<g><path style="opacity:1" fill="#4e5467" d="M 1144.5,102.5 C 1161.47,119.634 1178.3,136.967 1195,154.5C 1204.79,165.457 1213.63,177.124 1221.5,189.5C 1155.08,207.081 1108.25,247.415 1081,310.5C 1071.98,328.862 1067.15,347.862 1066.5,367.5C 1055.51,326.57 1050.51,284.903 1051.5,242.5C 1051.34,226.972 1052.01,211.639 1053.5,196.5C 1055.17,206.33 1058.33,215.663 1063,224.5C 1069.37,234.767 1078.53,239.267 1090.5,238C 1102.85,234.071 1113.35,227.237 1122,217.5C 1147.58,182.703 1155.08,144.37 1144.5,102.5 Z"/></g>
<g><path style="opacity:1" fill="#df8376" d="M 862.5,118.5 C 859.611,141.136 854.777,163.47 848,185.5C 844.011,196.487 836.844,204.654 826.5,210C 817.351,212.004 810.184,209.17 805,201.5C 802.392,196.347 800.892,191.013 800.5,185.5C 808.868,166.424 819.035,148.424 831,131.5C 836.677,124.482 843.511,118.982 851.5,115C 856.084,113.663 859.751,114.829 862.5,118.5 Z"/></g>
<g><path style="opacity:1" fill="#734d42" d="M 866.5,114.5 C 870.368,125.028 872.535,136.028 873,147.5C 873.667,160.833 873.667,174.167 873,187.5C 871.331,199.174 867.664,210.174 862,220.5C 860.613,222.301 859.113,222.968 857.5,222.5C 859.651,231.238 861.318,240.072 862.5,249C 862.02,257.109 859.186,264.276 854,270.5C 823.662,300.902 786.828,315.569 743.5,314.5C 732.006,314.408 720.673,313.075 709.5,310.5C 709.5,309.167 709.5,307.833 709.5,306.5C 719.821,307.54 730.155,307.707 740.5,307C 741.482,310.147 743.482,312.314 746.5,313.5C 751.108,310.875 753.775,306.875 754.5,301.5C 761.174,300.443 767.841,299.276 774.5,298C 796.014,293.95 815.348,285.283 832.5,272C 848.352,257.172 850.686,240.505 839.5,222C 848.483,222.167 854.15,218 856.5,209.5C 858.61,208.547 859.777,206.881 860,204.5C 861.732,199.65 862.732,194.65 863,189.5C 865.085,169.217 866.252,148.884 866.5,128.5C 866.5,123.833 866.5,119.167 866.5,114.5 Z"/></g>
<g><path style="opacity:1" fill="#c44538" d="M 862.5,118.5 C 864.44,121.696 865.774,125.029 866.5,128.5C 866.252,148.884 865.085,169.217 863,189.5C 862.732,194.65 861.732,199.65 860,204.5C 859.777,206.881 858.61,208.547 856.5,209.5C 840.292,217.31 823.292,219.476 805.5,216C 802.063,214.895 799.563,212.728 798,209.5C 796.847,201.254 797.68,193.254 800.5,185.5C 800.892,191.013 802.392,196.347 805,201.5C 810.184,209.17 817.351,212.004 826.5,210C 836.844,204.654 844.011,196.487 848,185.5C 854.777,163.47 859.611,141.136 862.5,118.5 Z"/></g>
<g><path style="opacity:1" fill="#4e5467" d="M 1050.5,156.5 C 1044.93,199.992 1043.1,243.659 1045,287.5C 1046.5,314.984 1052.33,341.484 1062.5,367C 1062.09,367.945 1061.43,368.612 1060.5,369C 1027.1,376.775 999.271,393.609 977,419.5C 974.205,417.354 971.039,416.187 967.5,416C 958.133,403.933 951.133,390.6 946.5,376C 961.084,356.763 969.084,334.929 970.5,310.5C 998.373,323.145 1016.54,314.812 1025,285.5C 1027.38,258.53 1029.38,231.53 1031,204.5C 1032.95,178.779 1038.95,154.113 1049,130.5C 1049.17,139.343 1049.67,148.01 1050.5,156.5 Z"/></g>
<g><path style="opacity:1" fill="#de8376" d="M 712.5,141.5 C 723.184,163.789 726.351,187.122 722,211.5C 717.375,222.572 709.875,225.239 699.5,219.5C 695.374,198.678 694.54,177.678 697,156.5C 697.595,150.044 699.762,144.21 703.5,139C 707.286,136.888 710.286,137.722 712.5,141.5 Z"/></g>
<g><path style="opacity:1" fill="#c54538" d="M 712.5,141.5 C 716.183,145.025 719.35,149.025 722,153.5C 729.439,167.482 735.105,182.149 739,197.5C 739.667,202.833 739.667,208.167 739,213.5C 732,219.418 724.166,223.918 715.5,227C 707.471,229.676 702.137,227.176 699.5,219.5C 709.875,225.239 717.375,222.572 722,211.5C 726.351,187.122 723.184,163.789 712.5,141.5 Z"/></g>
<g><path style="opacity:1" fill="#656d80" d="M 603.5,216.5 C 603.225,218.842 602.392,218.842 601,216.5C 615.483,248.614 626.817,281.947 635,316.5C 641.106,366.402 620.273,382.902 572.5,366C 549.664,356.355 539.331,339.022 541.5,314C 541.715,306.782 542.382,299.615 543.5,292.5C 550.695,269.766 558.195,247.1 566,224.5C 569.344,213.792 575.178,204.792 583.5,197.5C 592.128,201.795 598.795,208.129 603.5,216.5 Z"/></g>
<g><path style="opacity:1" fill="#656d80" d="M 726.5,320.5 C 727.235,348.463 718.902,373.296 701.5,395C 700.5,395.667 699.5,395.667 698.5,395C 693.065,390.635 689.232,385.135 687,378.5C 679.643,358.095 671.309,338.095 662,318.5C 655.06,304.287 648.393,289.953 642,275.5C 638.98,268.783 635.48,262.449 631.5,256.5C 623.707,240.248 614.874,224.581 605,209.5C 600.068,204.565 594.568,200.399 588.5,197C 594.193,196.595 599.859,196.928 605.5,198C 633.208,203.18 659.875,211.68 685.5,223.5C 687.691,233.072 690.691,242.406 694.5,251.5C 684.297,261.572 677.464,273.572 674,287.5C 672.559,300.408 678.059,308.908 690.5,313C 702.357,316.87 714.357,319.37 726.5,320.5 Z"/></g>
<g><path style="opacity:1" fill="#656d80" d="M 539.5,283.5 C 534.457,293.256 529.624,303.256 525,313.5C 519.278,325.118 511.111,334.618 500.5,342C 479.982,351.91 462.149,348.41 447,331.5C 444.781,327.729 443.115,323.729 442,319.5C 441.5,312.508 441.334,305.508 441.5,298.5C 467.384,259.451 501.051,228.951 542.5,207C 554.228,201.318 566.562,198.318 579.5,198C 567.273,213.949 557.773,231.449 551,250.5C 547.057,261.498 543.224,272.498 539.5,283.5 Z"/></g>
<g><path style="opacity:1" fill="#734d41" d="M 780.5,215.5 C 780.217,216.289 779.717,216.956 779,217.5C 772.196,216.257 765.363,216.423 758.5,218C 750.763,220.183 743.097,222.183 735.5,224C 738.312,221.099 741.312,218.432 744.5,216C 742.258,214.993 742.592,214.159 745.5,213.5C 745.735,214.097 746.235,214.43 747,214.5C 757.488,211.378 768.155,209.045 779,207.5C 779.5,207.833 780,208.167 780.5,208.5C 779.234,210.972 779.234,213.306 780.5,215.5 Z"/></g>
<g><path style="opacity:1" fill="#4e5467" d="M 603.5,216.5 C 618.187,244.218 631.021,272.885 642,302.5C 654.745,340.15 666.245,378.15 676.5,416.5C 670.829,418.618 665.162,420.952 659.5,423.5C 635.91,406.8 609.577,397.3 580.5,395C 559.826,392.832 540.826,397.332 523.5,408.5C 525.26,383.421 528.427,358.421 533,333.5C 535.433,319.432 538.933,305.766 543.5,292.5C 542.382,299.615 541.715,306.782 541.5,314C 539.331,339.022 549.664,356.355 572.5,366C 620.273,382.902 641.106,366.402 635,316.5C 626.817,281.947 615.483,248.614 601,216.5C 602.392,218.842 603.225,218.842 603.5,216.5 Z"/></g>
<g><path style="opacity:1" fill="#734d42" d="M 803.5,387.5 C 835.103,400.027 864.436,396.194 891.5,376C 906.504,358.656 913.337,338.489 912,315.5C 910.177,308.352 906.677,302.185 901.5,297C 900.551,296.383 899.718,296.549 899,297.5C 896.87,303.019 895.203,308.686 894,314.5C 892.861,304.727 888.861,296.394 882,289.5C 878.693,295.084 876.359,301.084 875,307.5C 874.475,299.59 872.141,292.257 868,285.5C 866.534,283.675 864.701,283.175 862.5,284C 853.375,296.249 841.375,304.582 826.5,309C 806.026,317.619 784.692,321.786 762.5,321.5C 763.058,320.21 764.058,319.377 765.5,319C 801.341,314.329 831.841,299.162 857,273.5C 867.993,260.37 870.826,245.704 865.5,229.5C 879.087,225.109 892.42,225.776 905.5,231.5C 902.444,231.938 899.777,233.105 897.5,235C 915.179,235.923 929.679,243.09 941,256.5C 956.379,277.304 963.712,300.637 963,326.5C 956.672,351.991 943.172,372.824 922.5,389C 899.74,402.97 875.074,407.97 848.5,404C 835.097,402.817 822.431,399.15 810.5,393C 807.98,391.303 805.647,389.47 803.5,387.5 Z"/></g>
<g><path style="opacity:1" fill="#5d3113" d="M 775.5,241.5 C 781.843,240.755 786.01,243.422 788,249.5C 788.658,253.572 788.325,257.572 787,261.5C 783.96,267.368 779.46,268.868 773.5,266C 766.237,256.983 766.903,248.816 775.5,241.5 Z"/></g>
<g><path style="opacity:1" fill="#e6e3e1" d="M 709.5,244.5 C 713.976,244.822 715.476,247.156 714,251.5C 710.828,254.388 708.661,253.722 707.5,249.5C 707.902,247.7 708.569,246.033 709.5,244.5 Z"/></g>
<g><path style="opacity:1" fill="#efedec" d="M 774.5,244.5 C 777.868,246.079 779.035,248.746 778,252.5C 774.583,254.036 772.75,252.869 772.5,249C 772.519,247.167 773.185,245.667 774.5,244.5 Z"/></g>
<g><path style="opacity:1" fill="#4e5467" d="M 631.5,256.5 C 635.48,262.449 638.98,268.783 642,275.5C 648.393,289.953 655.06,304.287 662,318.5C 671.309,338.095 679.643,358.095 687,378.5C 689.232,385.135 693.065,390.635 698.5,395C 699.5,395.667 700.5,395.667 701.5,395C 718.902,373.296 727.235,348.463 726.5,320.5C 736.855,320.168 747.188,320.501 757.5,321.5C 752.483,332.776 751.316,344.443 754,356.5C 756.078,363.725 759.578,364.391 764.5,358.5C 764.03,371.149 769.03,380.816 779.5,387.5C 782.256,385.909 784.089,383.576 785,380.5C 790.122,389.162 797.289,395.662 806.5,400C 823.248,404.514 840.248,407.847 857.5,410C 858.337,411.011 858.67,412.178 858.5,413.5C 802.499,413.333 746.499,413.5 690.5,414C 688.08,414.29 685.746,414.79 683.5,415.5C 670.179,361.203 652.846,308.203 631.5,256.5 Z"/></g>
<g><path style="opacity:1" fill="#734d41" d="M 681.5,278.5 C 681.372,280.655 681.872,282.655 683,284.5C 685.833,287.333 688.667,290.167 691.5,293C 705.088,301.084 719.754,304.251 735.5,302.5C 724.207,304.129 712.874,303.629 701.5,301C 699.167,299.5 696.833,298 694.5,296.5C 694.167,296.833 693.833,297.167 693.5,297.5C 696.206,299.524 697.539,302.19 697.5,305.5C 682.02,302.181 676.687,293.181 681.5,278.5 Z"/></g>
<g><path style="opacity:1" fill="#936d60" d="M 803.5,387.5 C 791.346,379.207 782.513,368.207 777,354.5C 775.194,359.597 775.027,364.763 776.5,370C 776.333,371.167 776.167,372.333 776,373.5C 774.219,370.726 772.885,367.726 772,364.5C 771.271,354.473 771.437,344.473 772.5,334.5C 770.516,334.383 768.85,335.05 767.5,336.5C 765.682,340.136 763.849,343.802 762,347.5C 761.176,338.657 761.343,329.99 762.5,321.5C 784.692,321.786 806.026,317.619 826.5,309C 841.375,304.582 853.375,296.249 862.5,284C 864.701,283.175 866.534,283.675 868,285.5C 872.141,292.257 874.475,299.59 875,307.5C 876.359,301.084 878.693,295.084 882,289.5C 888.861,296.394 892.861,304.727 894,314.5C 895.203,308.686 896.87,303.019 899,297.5C 899.718,296.549 900.551,296.383 901.5,297C 906.677,302.185 910.177,308.352 912,315.5C 913.337,338.489 906.504,358.656 891.5,376C 864.436,396.194 835.103,400.027 803.5,387.5 Z"/></g>
<g><path style="opacity:1" fill="#4e5466" d="M 539.5,283.5 C 528.463,319.189 521.463,355.689 518.5,393C 518.279,399.159 518.946,405.159 520.5,411C 520,411.5 519.5,412 519,412.5C 507.457,383.621 486.624,365.454 456.5,358C 437.899,356.239 420.732,360.406 405,370.5C 415.305,345.557 427.472,321.557 441.5,298.5C 441.334,305.508 441.5,312.508 442,319.5C 443.115,323.729 444.781,327.729 447,331.5C 462.149,348.41 479.982,351.91 500.5,342C 511.111,334.618 519.278,325.118 525,313.5C 529.624,303.256 534.457,293.256 539.5,283.5 Z"/></g>
<g><path style="opacity:1" fill="#eae7e6" d="M 748.5,302.5 C 749.5,302.5 750.5,302.5 751.5,302.5C 751.585,306.939 749.585,309.105 745.5,309C 744.707,307.915 744.04,306.748 743.5,305.5C 745.36,304.675 747.026,303.675 748.5,302.5 Z"/></g>
<g><path style="opacity:1" fill="#e5e1e0" d="M 699.5,304.5 C 701.765,303.658 704.098,303.991 706.5,305.5C 708.174,308.966 707.174,310.799 703.5,311C 702.267,308.686 700.933,306.519 699.5,304.5 Z"/></g>
<g><path style="opacity:1" fill="#4e5365" d="M 939.5,380.5 C 944.607,397.87 953.274,413.37 965.5,427C 966.09,429.196 966.757,431.362 967.5,433.5C 964.167,439.5 960.833,445.5 957.5,451.5C 945.321,432.479 933.321,413.312 921.5,394C 927.947,390.047 933.947,385.547 939.5,380.5 Z"/></g>
<g><path style="opacity:1" fill="#4e5365" d="M 916.5,436.5 C 917.243,429.829 916.243,423.496 913.5,417.5C 911.664,416.081 909.664,414.914 907.5,414C 894.504,413.5 881.504,413.333 868.5,413.5C 868.047,412.542 867.381,411.708 866.5,411C 873.88,410.327 881.214,409.327 888.5,408C 897.771,404.364 906.771,400.197 915.5,395.5C 927.485,415.464 939.485,435.464 951.5,455.5C 950.998,456.521 950.332,456.688 949.5,456C 939.395,448.078 928.395,441.578 916.5,436.5 Z"/></g>
<g><path style="opacity:1" fill="#fefffe" d="M 30.5,413.5 C 105.501,413.333 180.501,413.5 255.5,414C 268.802,415.545 281.136,419.879 292.5,427C 304.733,436.953 312.233,449.786 315,465.5C 315.667,495.5 315.667,525.5 315,555.5C 312.248,572.199 304.081,585.365 290.5,595C 285.008,597.579 279.675,600.412 274.5,603.5C 292.249,629.996 309.749,656.662 327,683.5C 327.667,688.167 327.667,692.833 327,697.5C 325.833,702 323,704.833 318.5,706C 285.167,706.667 251.833,706.667 218.5,706C 215.34,705.009 212.84,703.176 211,700.5C 190.667,669.833 170.333,639.167 150,608.5C 143.924,607.524 137.758,607.19 131.5,607.5C 131.667,637.502 131.5,667.502 131,697.5C 129.833,702 127,704.833 122.5,706C 91.8333,706.667 61.1667,706.667 30.5,706C 26,704.833 23.1667,702 22,697.5C 21.3333,605.833 21.3333,514.167 22,422.5C 23.3513,417.985 26.1846,414.985 30.5,413.5 Z M 131.5,491.5 C 155.169,491.333 178.836,491.5 202.5,492C 203.416,492.374 204.25,492.874 205,493.5C 205.82,505.076 205.654,516.576 204.5,528C 180.219,529.461 155.885,529.961 131.5,529.5C 131.5,516.833 131.5,504.167 131.5,491.5 Z"/></g>
<g><path style="opacity:1" fill="#000000" d="M 32.5,418.5 C 106.167,418.333 179.834,418.5 253.5,419C 266.05,420.406 277.717,424.406 288.5,431C 300.395,440.278 307.562,452.445 310,467.5C 310.961,497.873 310.627,528.207 309,558.5C 305.552,572.259 298.052,583.092 286.5,591C 279.838,594.832 272.838,597.832 265.5,600C 283.543,627.253 301.709,654.419 320,681.5C 323.482,687.653 323.315,693.653 319.5,699.5C 318.5,700 317.5,700.5 316.5,701C 284.5,701.667 252.5,701.667 220.5,701C 219.5,700.5 218.5,700 217.5,699.5C 195.709,667.42 174.043,635.253 152.5,603C 143.84,602.5 135.173,602.334 126.5,602.5C 126.667,633.502 126.5,664.502 126,695.5C 125.167,698.333 123.333,700.167 120.5,701C 91.1667,701.667 61.8333,701.667 32.5,701C 29.6667,700.167 27.8333,698.333 27,695.5C 26.3333,605.167 26.3333,514.833 27,424.5C 28.0209,421.65 29.8542,419.65 32.5,418.5 Z M 131.5,491.5 C 131.5,504.167 131.5,516.833 131.5,529.5C 155.885,529.961 180.219,529.461 204.5,528C 205.654,516.576 205.82,505.076 205,493.5C 204.25,492.874 203.416,492.374 202.5,492C 178.836,491.5 155.169,491.333 131.5,491.5 Z"/></g>
<g><path style="opacity:1" fill="#000000" d="M 351.5,418.5 C 417.168,418.333 482.834,418.5 548.5,419C 565.698,420.851 580.532,427.685 593,439.5C 599.188,447.879 603.188,457.212 605,467.5C 605.922,486.871 605.589,506.205 604,525.5C 601.246,535.679 596.412,544.679 589.5,552.5C 597.601,561.702 602.767,572.369 605,584.5C 605.667,607.167 605.667,629.833 605,652.5C 601.961,674.203 590.128,688.703 569.5,696C 562.686,698.454 555.686,700.12 548.5,701C 482.833,701.667 417.167,701.667 351.5,701C 348.667,700.167 346.833,698.333 346,695.5C 345.333,676.833 345.333,658.167 346,639.5C 346.833,636.667 348.667,634.833 351.5,634C 400.833,633.667 450.167,633.333 499.5,633C 502.81,633.229 504.644,631.729 505,628.5C 505.667,616.833 505.667,605.167 505,593.5C 504.644,590.271 502.81,588.771 499.5,589C 462.167,588.667 424.833,588.333 387.5,588C 384.667,587.167 382.833,585.333 382,582.5C 381.333,563.833 381.333,545.167 382,526.5C 382.833,523.667 384.667,521.833 387.5,521C 426.2,520.964 464.866,520.297 503.5,519C 504.191,517.933 504.691,516.766 505,515.5C 505.667,507.5 505.667,499.5 505,491.5C 504.644,488.271 502.81,486.771 499.5,487C 450.167,486.667 400.833,486.333 351.5,486C 348.667,485.167 346.833,483.333 346,480.5C 345.333,461.833 345.333,443.167 346,424.5C 347.021,421.65 348.854,419.65 351.5,418.5 Z"/></g>
<g><path style="opacity:1" fill="#000000" d="M 692.5,418.5 C 763.501,418.333 834.501,418.5 905.5,419C 908.333,419.833 910.167,421.667 911,424.5C 911.667,443.167 911.667,461.833 911,480.5C 910.167,483.333 908.333,485.167 905.5,486C 851.167,486.333 796.833,486.667 742.5,487C 740.744,487.202 739.078,487.702 737.5,488.5C 736.838,512.292 736.505,536.125 736.5,560C 736.505,583.875 736.838,607.708 737.5,631.5C 738.729,632.281 740.062,632.781 741.5,633C 796.167,633.333 850.833,633.667 905.5,634C 908.333,634.833 910.167,636.667 911,639.5C 911.667,658.167 911.667,676.833 911,695.5C 910.167,698.333 908.333,700.167 905.5,701C 834.5,701.667 763.5,701.667 692.5,701C 674.935,699.3 660.101,692.133 648,679.5C 642.196,671.761 638.53,663.094 637,653.5C 636.333,591.167 636.333,528.833 637,466.5C 640.294,446.739 651.127,432.906 669.5,425C 677.092,422.074 684.759,419.907 692.5,418.5 Z"/></g>
<g><path style="opacity:1" fill="#fdc005" d="M 36.5,428.5 C 107.501,428.333 178.501,428.5 249.5,429C 265.358,430.181 278.858,436.348 290,447.5C 295.526,454.556 298.859,462.556 300,471.5C 300.667,497.5 300.667,523.5 300,549.5C 296.707,569.796 285.207,582.962 265.5,589C 259.557,590.589 253.557,591.922 247.5,593C 269.291,625.414 290.957,657.914 312.5,690.5C 283.167,691.833 253.833,691.833 224.5,690.5C 202.957,657.914 181.291,625.414 159.5,593C 145.171,592.5 130.837,592.333 116.5,592.5C 116.5,625.5 116.5,658.5 116.5,691.5C 89.8333,691.5 63.1667,691.5 36.5,691.5C 36.5,603.833 36.5,516.167 36.5,428.5 Z M 131.5,491.5 C 131.5,504.167 131.5,516.833 131.5,529.5C 155.885,529.961 180.219,529.461 204.5,528C 205.654,516.576 205.82,505.076 205,493.5C 204.25,492.874 203.416,492.374 202.5,492C 178.836,491.5 155.169,491.333 131.5,491.5 Z"/></g>
<g><path style="opacity:1" fill="#fdc005" d="M 355.5,428.5 C 418.501,428.333 481.501,428.5 544.5,429C 582.363,433.858 599.363,455.358 595.5,493.5C 598.141,511.731 593.974,528.064 583,542.5C 578.923,546.412 574.423,549.745 569.5,552.5C 584.005,560.182 592.505,572.182 595,588.5C 595.667,608.5 595.667,628.5 595,648.5C 592.622,666.877 582.789,679.377 565.5,686C 558.686,688.454 551.686,690.12 544.5,691C 481.501,691.5 418.501,691.667 355.5,691.5C 355.5,675.5 355.5,659.5 355.5,643.5C 404.834,643.667 454.168,643.5 503.5,643C 507.906,642.881 511.406,641.047 514,637.5C 516,619.833 516,602.167 514,584.5C 512.457,582.622 510.624,581.122 508.5,580C 469.54,578.53 430.54,578.03 391.5,578.5C 391.5,562.5 391.5,546.5 391.5,530.5C 430.53,530.957 469.53,530.457 508.5,529C 512.67,527.17 514.836,524.003 515,519.5C 515.894,507.118 515.561,494.785 514,482.5C 511.406,478.953 507.906,477.119 503.5,477C 454.168,476.5 404.834,476.333 355.5,476.5C 355.5,460.5 355.5,444.5 355.5,428.5 Z"/></g>
<g><path style="opacity:1" fill="#fdc005" d="M 696.5,428.5 C 764.833,428.5 833.167,428.5 901.5,428.5C 901.5,444.5 901.5,460.5 901.5,476.5C 845.462,476.021 789.462,476.521 733.5,478C 729.594,478.973 727.427,481.473 727,485.5C 726.333,535.167 726.333,584.833 727,634.5C 727.427,638.527 729.594,641.027 733.5,642C 789.454,643.484 845.454,643.984 901.5,643.5C 901.5,659.5 901.5,675.5 901.5,691.5C 833.166,691.667 764.833,691.5 696.5,691C 676.304,689.832 661.137,680.665 651,663.5C 649.046,659.019 647.713,654.352 647,649.5C 646.333,589.833 646.333,530.167 647,470.5C 649.641,454.054 658.474,442.221 673.5,435C 681.092,432.074 688.759,429.907 696.5,428.5 Z"/></g>
<g><path style="opacity:1" fill="#000000" d="M 116.5,476.5 C 148.875,476.037 181.208,476.537 213.5,478C 215.624,479.122 217.457,480.622 219,482.5C 220.094,491.785 220.594,501.118 220.5,510.5C 220.594,519.882 220.094,529.215 219,538.5C 217.457,540.378 215.624,541.878 213.5,543C 181.198,544.448 148.865,544.948 116.5,544.5C 116.5,521.833 116.5,499.167 116.5,476.5 Z M 131.5,491.5 C 131.5,504.167 131.5,516.833 131.5,529.5C 155.885,529.961 180.219,529.461 204.5,528C 205.654,516.576 205.82,505.076 205,493.5C 204.25,492.874 203.416,492.374 202.5,492C 178.836,491.5 155.169,491.333 131.5,491.5 Z"/></g>
<g><path style="opacity:1" fill="#fefffe" d="M 126.5,486.5 C 153.884,486.035 181.218,486.535 208.5,488C 209.191,489.067 209.691,490.234 210,491.5C 210.667,504.167 210.667,516.833 210,529.5C 209.691,530.766 209.191,531.933 208.5,533C 181.204,534.447 153.871,534.947 126.5,534.5C 126.5,518.5 126.5,502.5 126.5,486.5 Z M 131.5,491.5 C 131.5,504.167 131.5,516.833 131.5,529.5C 155.885,529.961 180.219,529.461 204.5,528C 205.654,516.576 205.82,505.076 205,493.5C 204.25,492.874 203.416,492.374 202.5,492C 178.836,491.5 155.169,491.333 131.5,491.5 Z"/></g>
<g><path style="opacity:1" fill="#fefffe" d="M 95.5,713.5 C 101.842,713.334 108.175,713.5 114.5,714C 117.333,714.833 119.167,716.667 120,719.5C 120.182,722.226 120.682,724.893 121.5,727.5C 122.446,727.987 123.446,728.32 124.5,728.5C 155.34,727.992 186.34,727.825 217.5,728C 220.934,729.349 223.101,731.849 224,735.5C 224.899,731.849 227.066,729.349 230.5,728C 238.833,727.333 247.167,727.333 255.5,728C 258.934,729.349 261.101,731.849 262,735.5C 262.899,731.849 265.066,729.349 268.5,728C 275.5,727.333 282.5,727.333 289.5,728C 291.492,728.574 292.992,729.741 294,731.5C 295.008,729.741 296.508,728.574 298.5,728C 305.5,727.333 312.5,727.333 319.5,728C 322.333,728.833 324.167,730.667 325,733.5C 325.667,748.167 325.667,762.833 325,777.5C 323.5,783 320,786.5 314.5,788C 293.5,788.667 272.5,788.667 251.5,788C 250.167,787.333 248.833,786.667 247.5,786C 244.5,778.667 241.5,778.667 238.5,786C 237.167,786.667 235.833,787.333 234.5,788C 193.447,787.884 152.447,788.05 111.5,788.5C 92.8333,788.333 74.1667,788.167 55.5,788C 52.8333,786 50.1667,786 47.5,788C 40.5,788.667 33.5,788.667 26.5,788C 23.6667,787.167 21.8333,785.333 21,782.5C 20.3333,766.167 20.3333,749.833 21,733.5C 21.8333,730.667 23.6667,728.833 26.5,728C 42.1922,727.197 57.8589,727.364 73.5,728.5C 77.1379,727.818 80.8046,727.318 84.5,727C 86.9869,721.365 90.6536,716.865 95.5,713.5 Z"/></g>
<g><path style="opacity:1" fill="#010000" d="M 97.5,718.5 C 102.897,718.215 108.23,718.549 113.5,719.5C 116.471,724.179 115.804,728.346 111.5,732C 114.5,732.333 117.5,732.667 120.5,733C 121.662,733.827 122.829,734.66 124,735.5C 125.49,734.683 126.99,733.85 128.5,733C 141.5,732.333 154.5,732.333 167.5,733C 168.667,733.5 169.5,734.333 170,735.5C 170.5,734.333 171.333,733.5 172.5,733C 186.833,732.333 201.167,732.333 215.5,733C 216.667,733.5 217.5,734.333 218,735.5C 218.667,739.5 218.667,743.5 218,747.5C 217.167,749 216,750.167 214.5,751C 215.811,755.469 215.811,759.969 214.5,764.5C 214.808,765.308 215.308,765.975 216,766.5C 219.941,758.284 223.608,749.951 227,741.5C 228.224,738.204 230.058,735.371 232.5,733C 239.883,732.201 247.217,732.368 254.5,733.5C 259.197,742.229 263.364,751.229 267,760.5C 267.195,751.785 267.695,743.119 268.5,734.5C 269.025,733.808 269.692,733.308 270.5,733C 276.167,732.333 281.833,732.333 287.5,733C 288.667,733.5 289.5,734.333 290,735.5C 290.5,745.494 290.666,755.494 290.5,765.5C 292.833,765.5 295.167,765.5 297.5,765.5C 297.334,755.494 297.5,745.494 298,735.5C 298.5,734.333 299.333,733.5 300.5,733C 306.167,732.333 311.833,732.333 317.5,733C 318.667,733.5 319.5,734.333 320,735.5C 320.667,748.833 320.667,762.167 320,775.5C 318.833,779.333 316.333,781.833 312.5,783C 292.785,783.296 273.118,783.296 253.5,783C 250.866,781.414 249.199,779.08 248.5,776C 244.833,775.333 241.167,775.333 237.5,776C 236.801,779.08 235.134,781.414 232.5,783C 212.5,783.667 192.5,783.667 172.5,783C 171.333,782.5 170.5,781.667 170,780.5C 168.581,781.46 167.081,782.293 165.5,783C 132.566,782.969 99.7324,783.136 67,783.5C 63.0497,783.593 59.2164,783.093 55.5,782C 52.9627,779.094 50.796,775.927 49,772.5C 48.9741,776.108 48.1407,779.442 46.5,782.5C 40.5522,783.624 34.5522,783.79 28.5,783C 27.3333,782.5 26.5,781.667 26,780.5C 25.3333,765.5 25.3333,750.5 26,735.5C 26.3076,734.692 26.8076,734.025 27.5,733.5C 41.4549,732.351 55.4549,732.184 69.5,733C 71.1667,733.833 72.8333,734.667 74.5,735.5C 75.354,734.478 76.354,733.645 77.5,733C 81.211,732.825 84.8776,732.325 88.5,731.5C 90.7956,726.54 93.7956,722.206 97.5,718.5 Z"/></g>
<g><path style="opacity:1" fill="#f5b300" d="M 100.5,723.5 C 103.85,723.335 107.183,723.502 110.5,724C 107.833,727 105.167,730 102.5,733C 99.5,733.667 96.5,733.667 93.5,733C 95.9646,729.893 98.2979,726.726 100.5,723.5 Z"/></g>
<g><path style="opacity:1" fill="#fefffe" d="M 339.5,727.5 C 352.504,727.333 365.504,727.5 378.5,728C 381.196,728.765 383.696,729.932 386,731.5C 387.008,729.741 388.508,728.574 390.5,728C 406.167,727.333 421.833,727.333 437.5,728C 442.845,730.866 444.845,735.366 443.5,741.5C 443.546,747.223 442.546,752.723 440.5,758C 442.546,763.277 443.546,768.777 443.5,774.5C 444.845,780.634 442.845,785.134 437.5,788C 421.833,788.667 406.167,788.667 390.5,788C 388.508,787.426 387.008,786.259 386,784.5C 383.696,786.068 381.196,787.235 378.5,788C 365.5,788.667 352.5,788.667 339.5,788C 336.667,787.167 334.833,785.333 334,782.5C 333.333,766.167 333.333,749.833 334,733.5C 335.021,730.65 336.854,728.65 339.5,727.5 Z"/></g>
<g><path style="opacity:1" fill="#000000" d="M 341.5,732.5 C 353.171,732.333 364.838,732.5 376.5,733C 382.113,734.282 386.28,737.449 389,742.5C 389.333,740.167 389.667,737.833 390,735.5C 390.5,734.333 391.333,733.5 392.5,733C 407.212,732.184 421.878,732.35 436.5,733.5C 438.042,735.879 438.709,738.546 438.5,741.5C 439.247,745.634 437.913,748.801 434.5,751C 435.811,755.469 435.811,759.969 434.5,764.5C 435.766,765.724 436.933,767.057 438,768.5C 438.772,772.89 438.606,777.223 437.5,781.5C 436.975,782.192 436.308,782.692 435.5,783C 421.167,783.667 406.833,783.667 392.5,783C 391.333,782.5 390.5,781.667 390,780.5C 389.667,778.167 389.333,775.833 389,773.5C 386.28,778.551 382.113,781.718 376.5,783C 364.454,783.812 352.454,783.646 340.5,782.5C 339.808,781.975 339.308,781.308 339,780.5C 338.333,765.5 338.333,750.5 339,735.5C 339.698,734.309 340.531,733.309 341.5,732.5 Z"/></g>
<g><path style="opacity:1" fill="#fe3d00" d="M 30.5,737.5 C 42.8378,737.333 55.1712,737.5 67.5,738C 69.8147,739.109 71.3147,740.943 72,743.5C 72.8392,748.921 72.5059,754.254 71,759.5C 69.1886,761.543 67.022,763.043 64.5,764C 67.624,768.414 70.624,772.914 73.5,777.5C 68.8687,778.662 64.202,778.828 59.5,778C 56.376,773.586 53.376,769.086 50.5,764.5C 48.2573,763.526 45.924,763.192 43.5,763.5C 43.5,768.5 43.5,773.5 43.5,778.5C 39.1667,778.5 34.8333,778.5 30.5,778.5C 30.5,764.833 30.5,751.167 30.5,737.5 Z"/></g>
<g><path style="opacity:1" fill="#f8b500" d="M 79.5,737.5 C 92.5,737.5 105.5,737.5 118.5,737.5C 118.5,740.167 118.5,742.833 118.5,745.5C 109.833,745.5 101.167,745.5 92.5,745.5C 92.5,748.167 92.5,750.833 92.5,753.5C 100.167,753.5 107.833,753.5 115.5,753.5C 115.5,756.167 115.5,758.833 115.5,761.5C 107.833,761.5 100.167,761.5 92.5,761.5C 92.5,764.5 92.5,767.5 92.5,770.5C 101.167,770.5 109.833,770.5 118.5,770.5C 118.5,773.167 118.5,775.833 118.5,778.5C 105.5,778.5 92.5,778.5 79.5,778.5C 79.5,764.833 79.5,751.167 79.5,737.5 Z"/></g>
<g><path style="opacity:1" fill="#f8b500" d="M 164.5,737.5 C 164.5,739.833 164.5,742.167 164.5,744.5C 156.316,744.174 148.316,744.508 140.5,745.5C 139.527,747.948 139.194,750.615 139.5,753.5C 147.943,753.062 156.277,753.562 164.5,755C 166.049,756.214 167.215,757.714 168,759.5C 168.888,764.618 168.555,769.618 167,774.5C 165.786,776.049 164.286,777.215 162.5,778C 150.505,778.5 138.505,778.667 126.5,778.5C 126.5,775.833 126.5,773.167 126.5,770.5C 136.167,770.5 145.833,770.5 155.5,770.5C 155.5,767.5 155.5,764.5 155.5,761.5C 147.083,761.906 138.749,761.406 130.5,760C 129.333,758.833 128.167,757.667 127,756.5C 126.333,751.833 126.333,747.167 127,742.5C 127.833,740.333 129.333,738.833 131.5,738C 142.495,737.5 153.495,737.333 164.5,737.5 Z"/></g>
<g><path style="opacity:1" fill="#f8b500" d="M 174.5,737.5 C 187.5,737.5 200.5,737.5 213.5,737.5C 213.5,740.167 213.5,742.833 213.5,745.5C 204.833,745.5 196.167,745.5 187.5,745.5C 187.5,748.167 187.5,750.833 187.5,753.5C 195.167,753.5 202.833,753.5 210.5,753.5C 210.5,756.167 210.5,758.833 210.5,761.5C 202.833,761.5 195.167,761.5 187.5,761.5C 187.5,764.5 187.5,767.5 187.5,770.5C 196.167,770.5 204.833,770.5 213.5,770.5C 213.5,773.167 213.5,775.833 213.5,778.5C 200.5,778.5 187.5,778.5 174.5,778.5C 174.5,764.833 174.5,751.167 174.5,737.5 Z"/></g>
<g><path style="opacity:1" fill="#f9b500" d="M 234.5,737.5 C 240.206,737.171 245.872,737.505 251.5,738.5C 257.038,751.74 262.704,764.907 268.5,778C 264.129,778.828 259.795,778.661 255.5,777.5C 254.399,775.358 253.399,773.192 252.5,771C 246.167,770.333 239.833,770.333 233.5,771C 232.601,773.192 231.601,775.358 230.5,777.5C 226.167,778.833 221.833,778.833 217.5,777.5C 223.73,764.377 229.397,751.043 234.5,737.5 Z"/></g>
<g><path style="opacity:1" fill="#f8b500" d="M 272.5,737.5 C 276.833,737.5 281.167,737.5 285.5,737.5C 285.5,748.5 285.5,759.5 285.5,770.5C 291.167,770.5 296.833,770.5 302.5,770.5C 302.5,759.5 302.5,748.5 302.5,737.5C 306.833,737.5 311.167,737.5 315.5,737.5C 315.96,749.934 315.46,762.267 314,774.5C 312.786,776.049 311.286,777.215 309.5,778C 298.833,778.667 288.167,778.667 277.5,778C 276.069,777.535 274.903,776.701 274,775.5C 272.539,762.933 272.039,750.266 272.5,737.5 Z"/></g>
<g><path style="opacity:1" fill="#f8b500" d="M 343.5,737.5 C 354.578,737.069 365.578,737.569 376.5,739C 384.007,743.008 387.34,749.342 386.5,758C 387.34,766.658 384.007,772.992 376.5,777C 365.578,778.431 354.578,778.931 343.5,778.5C 343.5,764.833 343.5,751.167 343.5,737.5 Z"/></g>
<g><path style="opacity:1" fill="#f8b500" d="M 394.5,737.5 C 407.5,737.5 420.5,737.5 433.5,737.5C 433.5,740.167 433.5,742.833 433.5,745.5C 424.833,745.5 416.167,745.5 407.5,745.5C 407.5,748.167 407.5,750.833 407.5,753.5C 415.167,753.5 422.833,753.5 430.5,753.5C 430.5,756.167 430.5,758.833 430.5,761.5C 422.833,761.5 415.167,761.5 407.5,761.5C 407.5,764.5 407.5,767.5 407.5,770.5C 416.167,770.5 424.833,770.5 433.5,770.5C 433.5,773.167 433.5,775.833 433.5,778.5C 420.5,778.5 407.5,778.5 394.5,778.5C 394.5,764.833 394.5,751.167 394.5,737.5 Z"/></g>
<g><path style="opacity:0.686" fill="#a47800" d="M 164.5,737.5 C 165.473,739.948 165.806,742.615 165.5,745.5C 157.167,745.5 148.833,745.5 140.5,745.5C 148.316,744.508 156.316,744.174 164.5,744.5C 164.5,742.167 164.5,739.833 164.5,737.5 Z"/></g>
<g><path style="opacity:1" fill="#000000" d="M 43.5,745.5 C 48.5111,745.334 53.5111,745.501 58.5,746C 60.0911,749.275 59.7577,752.275 57.5,755C 52.8452,755.499 48.1785,755.666 43.5,755.5C 43.5,752.167 43.5,748.833 43.5,745.5 Z"/></g>
<g><path style="opacity:1" fill="#040200" d="M 356.5,745.5 C 371.674,743.182 377.174,749.515 373,764.5C 372.727,766.329 371.893,767.829 370.5,769C 365.934,770.309 361.267,770.809 356.5,770.5C 356.5,762.167 356.5,753.833 356.5,745.5 Z"/></g>
<g><path style="opacity:1" fill="#fefffe" d="M 120.5,749.5 C 121.321,752.641 121.821,755.975 122,759.5C 123.167,762 125,763.833 127.5,765C 125.863,765.601 124.197,766.101 122.5,766.5C 121,766.547 120,765.881 119.5,764.5C 120.405,759.352 120.738,754.352 120.5,749.5 Z"/></g>
<g><path style="opacity:0.992" fill="#080500" d="M 242.5,748.5 C 244.725,752.623 246.725,756.956 248.5,761.5C 244.893,762.489 241.226,762.823 237.5,762.5C 239.16,757.844 240.826,753.177 242.5,748.5 Z"/></g>
<g><path style="opacity:1" fill="#fefffe" d="M 361.5,750.5 C 366.332,750.502 368.666,753.002 368.5,758C 368.666,762.998 366.332,765.498 361.5,765.5C 361.5,760.5 361.5,755.5 361.5,750.5 Z"/></g>
<g><path style="opacity:1" fill="#fefffe" d="M 73.5,764.5 C 74.5735,765.251 74.7401,766.251 74,767.5C 72.2716,766.648 72.105,765.648 73.5,764.5 Z"/></g>
<g><path style="opacity:1" fill="#fefffe" d="M 30.5,802.5 C 44.8372,802.333 59.1705,802.5 73.5,803C 76.9344,804.349 79.101,806.849 80,810.5C 80.899,806.849 83.0656,804.349 86.5,803C 94.8333,802.333 103.167,802.333 111.5,803C 114.934,804.349 117.101,806.849 118,810.5C 118.899,806.849 121.066,804.349 124.5,803C 179.167,802.333 233.833,802.333 288.5,803C 290.492,803.574 291.992,804.741 293,806.5C 294.008,804.741 295.508,803.574 297.5,803C 319.5,802.333 341.5,802.333 363.5,803C 366.167,805 368.833,805 371.5,803C 385.833,802.333 400.167,802.333 414.5,803C 417.333,803.833 419.167,805.667 420,808.5C 420.333,814.167 420.667,819.833 421,825.5C 421.667,826.833 422.333,828.167 423,829.5C 423.667,837.167 423.667,844.833 423,852.5C 420.846,859.006 416.346,862.839 409.5,864C 411.002,864.583 412.335,865.416 413.5,866.5C 414.627,870.498 415.96,874.332 417.5,878C 433.126,877.397 448.793,877.397 464.5,878C 467.333,878.833 469.167,880.667 470,883.5C 470.333,889.167 470.667,894.833 471,900.5C 471.667,901.833 472.333,903.167 473,904.5C 473.667,912.167 473.667,919.833 473,927.5C 471.5,933 468,936.5 462.5,938C 435.167,938.333 407.833,938.667 380.5,939C 385.847,941.871 387.847,946.371 386.5,952.5C 402.17,952.333 417.837,952.5 433.5,953C 436.167,955 438.833,955 441.5,953C 455.5,952.333 469.5,952.333 483.5,953C 484.416,953.374 485.25,953.874 486,954.5C 486.75,953.874 487.584,953.374 488.5,953C 495.5,952.333 502.5,952.333 509.5,953C 512.333,953.833 514.167,955.667 515,958.5C 515.5,967.494 515.666,976.494 515.5,985.5C 518.833,985.5 522.167,985.5 525.5,985.5C 525.334,977.826 525.5,970.159 526,962.5C 527.167,957.333 530.333,954.167 535.5,953C 549.5,952.333 563.5,952.333 577.5,953C 579.081,953.707 580.581,954.54 582,955.5C 583.419,954.54 584.919,953.707 586.5,953C 593.833,952.833 601.167,952.667 608.5,952.5C 639.445,952.58 670.445,952.747 701.5,953C 706.845,955.866 708.845,960.366 707.5,966.5C 707.546,972.223 706.546,977.723 704.5,983C 704.329,986.129 705.162,988.963 707,991.5C 708.032,998.011 707.532,1004.34 705.5,1010.5C 704.335,1011.58 703.002,1012.42 701.5,1013C 663.167,1013.67 624.833,1013.67 586.5,1013C 584.919,1012.29 583.419,1011.46 582,1010.5C 580.581,1011.46 579.081,1012.29 577.5,1013C 570.5,1013.17 563.5,1013.33 556.5,1013.5C 533.972,1013.34 511.305,1013.17 488.5,1013C 487.584,1012.63 486.75,1012.13 486,1011.5C 485.25,1012.13 484.416,1012.63 483.5,1013C 476.5,1013.17 469.5,1013.33 462.5,1013.5C 451.193,1012.96 440.026,1012.96 429,1013.5C 423.678,1013.71 418.511,1013.05 413.5,1011.5C 412.062,1011.72 410.729,1012.22 409.5,1013C 386.833,1013.67 364.167,1013.67 341.5,1013C 338.667,1012.17 336.833,1010.33 336,1007.5C 335.333,971.5 334.667,971.5 334,1007.5C 333.167,1010.33 331.333,1012.17 328.5,1013C 321.5,1013.67 314.5,1013.67 307.5,1013C 304.667,1012.17 302.833,1010.33 302,1007.5C 301.667,1000.83 301.333,994.167 301,987.5C 299.567,992.598 296.4,996.098 291.5,998C 285.258,999.37 278.925,999.87 272.5,999.5C 273.847,1005.63 271.847,1010.13 266.5,1013C 259.5,1013.67 252.5,1013.67 245.5,1013C 244.584,1012.63 243.75,1012.13 243,1011.5C 242.25,1012.13 241.416,1012.63 240.5,1013C 233.5,1013.17 226.5,1013.33 219.5,1013.5C 208.193,1012.96 197.026,1012.96 186,1013.5C 180.678,1013.71 175.511,1013.05 170.5,1011.5C 169.062,1011.72 167.729,1012.22 166.5,1013C 145.5,1013.67 124.5,1013.67 103.5,1013C 101.508,1012.43 100.008,1011.26 99,1009.5C 97.992,1011.26 96.492,1012.43 94.5,1013C 73.1667,1013.67 51.8333,1013.67 30.5,1013C 25.3333,1011.83 22.1667,1008.67 21,1003.5C 20.3333,989.833 20.3333,976.167 21,962.5C 22.1667,957.333 25.3333,954.167 30.5,953C 51.8333,952.333 73.1667,952.333 94.5,953C 96.492,953.574 97.992,954.741 99,956.5C 100.008,954.741 101.508,953.574 103.5,953C 132.5,952.333 161.5,952.333 190.5,953C 193.167,955 195.833,955 198.5,953C 212.5,952.333 226.5,952.333 240.5,953C 241.416,953.374 242.25,953.874 243,954.5C 243.75,953.874 244.584,953.374 245.5,953C 280.5,952.667 315.5,952.333 350.5,952C 352.784,946.391 356.451,942.058 361.5,939C 364.5,938.667 367.5,938.333 370.5,938C 367.667,937.167 365.833,935.333 365,932.5C 364.333,896.5 363.667,896.5 363,932.5C 362.167,935.333 360.333,937.167 357.5,938C 350.5,938.667 343.5,938.667 336.5,938C 333.667,937.167 331.833,935.333 331,932.5C 330.5,923.506 330.334,914.506 330.5,905.5C 321.167,905.5 311.833,905.5 302.5,905.5C 302.5,907.167 302.5,908.833 302.5,910.5C 309.175,910.334 315.842,910.5 322.5,911C 325.333,911.833 327.167,913.667 328,916.5C 329.032,923.011 328.532,929.344 326.5,935.5C 325.335,936.584 324.002,937.417 322.5,938C 286.9,938.014 251.4,938.181 216,938.5C 210.835,938.729 205.835,938.062 201,936.5C 196.502,938.051 191.835,938.718 187,938.5C 175.638,938.319 164.138,938.153 152.5,938C 151.391,937.362 150.225,936.862 149,936.5C 144.502,938.051 139.835,938.718 135,938.5C 131.5,938.333 128,938.167 124.5,938C 123.584,937.626 122.75,937.126 122,936.5C 121.25,937.126 120.416,937.626 119.5,938C 112.5,938.167 105.5,938.333 98.5,938.5C 75.8743,938.277 53.2076,938.11 30.5,938C 25.3333,936.833 22.1667,933.667 21,928.5C 20.3333,914.833 20.3333,901.167 21,887.5C 22.1667,882.333 25.3333,879.167 30.5,878C 53.2076,877.89 75.8743,877.723 98.5,877.5C 105.5,877.667 112.5,877.833 119.5,878C 120.416,878.374 121.25,878.874 122,879.5C 122.75,878.874 123.584,878.374 124.5,878C 133.309,876.96 141.976,877.46 150.5,879.5C 151.938,879.281 153.271,878.781 154.5,878C 165.638,877.896 176.638,877.729 187.5,877.5C 192.657,877.292 197.657,877.958 202.5,879.5C 207.175,877.964 212.009,877.298 217,877.5C 237.05,877.309 257.217,877.642 277.5,878.5C 311.477,877.68 345.477,877.18 379.5,877C 381.784,871.391 385.451,867.058 390.5,864C 376.167,863.667 361.833,863.333 347.5,863C 346.271,862.219 344.938,861.719 343.5,861.5C 335.311,863.533 326.977,864.033 318.5,863C 317.584,862.626 316.75,862.126 316,861.5C 315.25,862.126 314.416,862.626 313.5,863C 306.5,863.167 299.5,863.333 292.5,863.5C 268.541,863.31 244.541,863.143 220.5,863C 217.667,862.167 215.833,860.333 215,857.5C 214.333,821.5 213.667,821.5 213,857.5C 212.167,860.333 210.333,862.167 207.5,863C 200.5,863.667 193.5,863.667 186.5,863C 183.667,862.167 181.833,860.333 181,857.5C 180.667,850.833 180.333,844.167 180,837.5C 178.567,842.598 175.4,846.098 170.5,848C 164.258,849.37 157.925,849.87 151.5,849.5C 152.847,855.629 150.847,860.129 145.5,863C 132.833,863.667 120.167,863.667 107.5,863C 106.167,862.333 104.833,861.667 103.5,861C 100.5,853.667 97.5,853.667 94.5,861C 93.1667,861.667 91.8333,862.333 90.5,863C 70.5,863.667 50.5,863.667 30.5,863C 25.3333,861.833 22.1667,858.667 21,853.5C 20.3333,839.833 20.3333,826.167 21,812.5C 22,810.5 23,808.5 24,806.5C 26.3143,805.267 28.4809,803.933 30.5,802.5 Z M 53.5,830.5 C 59.5092,830.334 65.5092,830.501 71.5,831C 70.7069,832.085 70.0402,833.252 69.5,834.5C 64.2079,835.495 58.8746,835.828 53.5,835.5C 53.5,833.833 53.5,832.167 53.5,830.5 Z M 53.5,905.5 C 58.1667,905.5 62.8333,905.5 67.5,905.5C 67.5,907.167 67.5,908.833 67.5,910.5C 62.8333,910.5 58.1667,910.5 53.5,910.5C 53.5,908.833 53.5,907.167 53.5,905.5 Z M 53.5,980.5 C 58.1667,980.5 62.8333,980.5 67.5,980.5C 67.5,982.167 67.5,983.833 67.5,985.5C 62.8333,985.5 58.1667,985.5 53.5,985.5C 53.5,983.833 53.5,982.167 53.5,980.5 Z M 435.5,989.5 C 436.573,990.251 436.74,991.251 436,992.5C 434.272,991.648 434.105,990.648 435.5,989.5 Z"/></g>
<g><path style="opacity:1" fill="#000000" d="M 32.5,807.5 C 45.5043,807.333 58.5043,807.5 71.5,808C 72.3081,808.308 72.9747,808.808 73.5,809.5C 74.1074,811.775 74.4407,814.109 74.5,816.5C 74.7086,819.454 74.0419,822.121 72.5,824.5C 64.5559,825.469 56.5559,825.802 48.5,825.5C 48.5,830.5 48.5,835.5 48.5,840.5C 56.4197,840.185 64.253,840.518 72,841.5C 76.9303,830.875 81.7636,820.209 86.5,809.5C 87.0253,808.808 87.6919,808.308 88.5,808C 95.5,807.333 102.5,807.333 109.5,808C 110.308,808.308 110.975,808.808 111.5,809.5C 115.608,818.049 119.441,826.716 123,835.5C 123.333,827.167 123.667,818.833 124,810.5C 124.5,809.333 125.333,808.5 126.5,808C 179.98,807.606 233.313,807.606 286.5,808C 287.667,808.5 288.5,809.333 289,810.5C 289.5,820.494 289.666,830.494 289.5,840.5C 291.833,840.5 294.167,840.5 296.5,840.5C 296.334,830.494 296.5,820.494 297,810.5C 297.5,809.333 298.333,808.5 299.5,808C 320.118,807.677 340.785,807.677 361.5,808C 364.102,808.883 366.269,810.383 368,812.5C 369.518,810.652 371.351,809.152 373.5,808C 386.5,807.333 399.5,807.333 412.5,808C 413.667,808.5 414.5,809.333 415,810.5C 415.667,814.5 415.667,818.5 415,822.5C 414.5,823.667 413.667,824.5 412.5,825C 415.381,826.251 417.214,828.417 418,831.5C 418.667,837.833 418.667,844.167 418,850.5C 416.833,854.333 414.333,856.833 410.5,858C 390.022,858.334 369.689,858.334 349.5,858C 345.969,855.129 343.136,851.629 341,847.5C 340.667,850.167 340.333,852.833 340,855.5C 339.5,856.667 338.667,857.5 337.5,858C 331.833,858.667 326.167,858.667 320.5,858C 319,857.167 317.833,856 317,854.5C 315.421,856.041 313.587,857.208 311.5,858C 298.833,858.667 286.167,858.667 273.5,858C 271.833,857.167 270.167,856.333 268.5,855.5C 267.646,856.522 266.646,857.355 265.5,858C 251.167,858.667 236.833,858.667 222.5,858C 221.333,857.5 220.5,856.667 220,855.5C 219.5,845.506 219.334,835.506 219.5,825.5C 215.833,825.5 212.167,825.5 208.5,825.5C 208.666,835.506 208.5,845.506 208,855.5C 207.5,856.667 206.667,857.5 205.5,858C 199.833,858.667 194.167,858.667 188.5,858C 187.333,857.5 186.5,856.667 186,855.5C 185.5,845.506 185.334,835.506 185.5,825.5C 182.167,825.5 178.833,825.5 175.5,825.5C 176.653,831.932 174.986,837.432 170.5,842C 168.913,842.862 167.246,843.529 165.5,844C 159.175,844.5 152.842,844.666 146.5,844.5C 146.665,848.182 146.499,851.848 146,855.5C 145.5,856.667 144.667,857.5 143.5,858C 132.167,858.667 120.833,858.667 109.5,858C 106.866,856.414 105.199,854.08 104.5,851C 100.833,850.333 97.1667,850.333 93.5,851C 92.8005,854.08 91.1339,856.414 88.5,858C 69.8333,858.667 51.1667,858.667 32.5,858C 29,857.167 26.8333,855 26,851.5C 25.3333,839.167 25.3333,826.833 26,814.5C 27.0183,810.985 29.1849,808.652 32.5,807.5 Z M 53.5,830.5 C 53.5,832.167 53.5,833.833 53.5,835.5C 58.8746,835.828 64.2079,835.495 69.5,834.5C 70.0402,833.252 70.7069,832.085 71.5,831C 65.5092,830.501 59.5092,830.334 53.5,830.5 Z"/></g>
<g><path style="opacity:1" fill="#fe3d00" d="M 35.5,812.5 C 46.8333,812.5 58.1667,812.5 69.5,812.5C 69.5,815.167 69.5,817.833 69.5,820.5C 60.8333,820.5 52.1667,820.5 43.5,820.5C 43.5,828.833 43.5,837.167 43.5,845.5C 52.1667,845.5 60.8333,845.5 69.5,845.5C 69.5,848.167 69.5,850.833 69.5,853.5C 58.1618,853.667 46.8284,853.5 35.5,853C 33.714,852.215 32.214,851.049 31,849.5C 30.3333,838.5 30.3333,827.5 31,816.5C 32.3968,814.93 33.8968,813.596 35.5,812.5 Z"/></g>
<g><path style="opacity:1" fill="#f9b500" d="M 90.5,812.5 C 96.2055,812.171 101.872,812.505 107.5,813.5C 113.038,826.74 118.704,839.907 124.5,853C 120.129,853.828 115.795,853.661 111.5,852.5C 110.399,850.358 109.399,848.192 108.5,846C 102.167,845.333 95.8333,845.333 89.5,846C 88.6005,848.192 87.6005,850.358 86.5,852.5C 82.1667,853.833 77.8333,853.833 73.5,852.5C 79.7303,839.377 85.3969,826.043 90.5,812.5 Z"/></g>
<g><path style="opacity:1" fill="#f8b500" d="M 128.5,812.5 C 140.505,812.333 152.505,812.5 164.5,813C 167,814.167 168.833,816 170,818.5C 170.667,823.167 170.667,827.833 170,832.5C 169.067,836.395 166.567,838.562 162.5,839C 155.508,839.5 148.508,839.666 141.5,839.5C 141.5,844.167 141.5,848.833 141.5,853.5C 137.167,853.5 132.833,853.5 128.5,853.5C 128.5,839.833 128.5,826.167 128.5,812.5 Z"/></g>
<g><path style="opacity:1" fill="#f7b400" d="M 173.5,812.5 C 188.833,812.5 204.167,812.5 219.5,812.5C 219.5,815.167 219.5,817.833 219.5,820.5C 214.167,820.5 208.833,820.5 203.5,820.5C 203.5,831.5 203.5,842.5 203.5,853.5C 199.167,853.5 194.833,853.5 190.5,853.5C 190.5,842.5 190.5,831.5 190.5,820.5C 184.833,820.5 179.167,820.5 173.5,820.5C 173.5,817.833 173.5,815.167 173.5,812.5 Z"/></g>
<g><path style="opacity:1" fill="#f8b500" d="M 224.5,812.5 C 237.5,812.5 250.5,812.5 263.5,812.5C 263.5,815.167 263.5,817.833 263.5,820.5C 254.833,820.5 246.167,820.5 237.5,820.5C 237.5,823.167 237.5,825.833 237.5,828.5C 245.167,828.5 252.833,828.5 260.5,828.5C 260.5,831.167 260.5,833.833 260.5,836.5C 252.833,836.5 245.167,836.5 237.5,836.5C 237.5,839.5 237.5,842.5 237.5,845.5C 246.167,845.5 254.833,845.5 263.5,845.5C 263.5,848.167 263.5,850.833 263.5,853.5C 250.5,853.5 237.5,853.5 224.5,853.5C 224.5,839.833 224.5,826.167 224.5,812.5 Z"/></g>
<g><path style="opacity:1" fill="#f8b500" d="M 271.5,812.5 C 275.833,812.5 280.167,812.5 284.5,812.5C 284.5,823.5 284.5,834.5 284.5,845.5C 290.167,845.5 295.833,845.5 301.5,845.5C 301.5,834.5 301.5,823.5 301.5,812.5C 305.833,812.5 310.167,812.5 314.5,812.5C 314.96,824.934 314.46,837.267 313,849.5C 311.786,851.049 310.286,852.215 308.5,853C 297.833,853.667 287.167,853.667 276.5,853C 275.069,852.535 273.903,851.701 273,850.5C 271.539,837.933 271.039,825.266 271.5,812.5 Z"/></g>
<g><path style="opacity:1" fill="#f8b500" d="M 322.5,812.5 C 334.505,812.333 346.505,812.5 358.5,813C 360.286,813.785 361.786,814.951 363,816.5C 364.555,821.382 364.888,826.382 364,831.5C 362.935,835.296 360.435,837.63 356.5,838.5C 359.5,843.167 362.5,847.833 365.5,852.5C 360.869,853.662 356.202,853.828 351.5,853C 348.376,848.586 345.376,844.086 342.5,839.5C 340.257,838.526 337.924,838.192 335.5,838.5C 335.5,843.5 335.5,848.5 335.5,853.5C 331.167,853.5 326.833,853.5 322.5,853.5C 322.5,839.833 322.5,826.167 322.5,812.5 Z"/></g>
<g><path style="opacity:1" fill="#f8b500" d="M 409.5,812.5 C 409.5,814.833 409.5,817.167 409.5,819.5C 401.316,819.174 393.316,819.508 385.5,820.5C 384.527,822.948 384.194,825.615 384.5,828.5C 392.943,828.062 401.277,828.562 409.5,830C 411.049,831.214 412.215,832.714 413,834.5C 413.888,839.618 413.555,844.618 412,849.5C 410.786,851.049 409.286,852.215 407.5,853C 395.505,853.5 383.505,853.667 371.5,853.5C 371.5,850.833 371.5,848.167 371.5,845.5C 381.167,845.5 390.833,845.5 400.5,845.5C 400.5,842.5 400.5,839.5 400.5,836.5C 392.083,836.906 383.749,836.406 375.5,835C 374.333,833.833 373.167,832.667 372,831.5C 371.333,826.833 371.333,822.167 372,817.5C 372.833,815.333 374.333,813.833 376.5,813C 387.495,812.5 398.495,812.333 409.5,812.5 Z"/></g>
<g><path style="opacity:0.686" fill="#a47800" d="M 409.5,812.5 C 410.473,814.948 410.806,817.615 410.5,820.5C 402.167,820.5 393.833,820.5 385.5,820.5C 393.316,819.508 401.316,819.174 409.5,819.5C 409.5,817.167 409.5,814.833 409.5,812.5 Z"/></g>
<g><path style="opacity:1" fill="#0d0c0c" d="M 141.5,820.5 C 146.833,820.5 152.167,820.5 157.5,820.5C 157.789,824.106 157.456,827.606 156.5,831C 151.511,831.499 146.511,831.666 141.5,831.5C 141.5,827.833 141.5,824.167 141.5,820.5 Z"/></g>
<g><path style="opacity:0.992" fill="#010000" d="M 335.5,820.5 C 340.833,820.5 346.167,820.5 351.5,820.5C 351.784,823.777 351.451,826.943 350.5,830C 345.511,830.499 340.511,830.666 335.5,830.5C 335.5,827.167 335.5,823.833 335.5,820.5 Z"/></g>
<g><path style="opacity:1" fill="#080500" d="M 98.5,823.5 C 100.725,827.623 102.725,831.956 104.5,836.5C 100.893,837.489 97.226,837.823 93.5,837.5C 95.1598,832.844 96.8264,828.177 98.5,823.5 Z"/></g>
<g><path style="opacity:1" fill="#fefffe" d="M 265.5,824.5 C 266.652,829.985 266.818,835.651 266,841.5C 265.308,840.975 264.808,840.308 264.5,839.5C 265.405,834.352 265.738,829.352 265.5,824.5 Z"/></g>
<g><path style="opacity:1" fill="#fefffe" d="M 367.5,836.5 C 369.01,837.836 370.677,839.003 372.5,840C 370.069,840.295 368.236,841.462 367,843.5C 366.167,842.667 365.333,841.833 364.5,841C 366.141,839.871 367.141,838.371 367.5,836.5 Z"/></g>
<g><path style="opacity:1" fill="#000000" d="M 392.5,868.5 C 397.897,868.215 403.23,868.549 408.5,869.5C 411.471,874.179 410.804,878.346 406.5,882C 409.5,882.333 412.5,882.667 415.5,883C 416.662,883.827 417.829,884.66 419,885.5C 420.49,884.683 421.99,883.85 423.5,883C 436.879,882.185 450.212,882.352 463.5,883.5C 465.042,885.879 465.709,888.546 465.5,891.5C 465.333,893.5 465.167,895.5 465,897.5C 464.5,898.667 463.667,899.5 462.5,900C 465.381,901.251 467.214,903.417 468,906.5C 468.667,912.833 468.667,919.167 468,925.5C 466.833,929.333 464.333,931.833 460.5,933C 431.187,932.657 401.853,932.657 372.5,933C 371.333,932.5 370.5,931.667 370,930.5C 369.5,920.506 369.334,910.506 369.5,900.5C 365.833,900.5 362.167,900.5 358.5,900.5C 358.666,910.506 358.5,920.506 358,930.5C 357.5,931.667 356.667,932.5 355.5,933C 349.833,933.667 344.167,933.667 338.5,933C 337.333,932.5 336.5,931.667 336,930.5C 335.5,920.506 335.334,910.506 335.5,900.5C 322.976,900.053 310.309,900.053 297.5,900.5C 297.5,905.5 297.5,910.5 297.5,915.5C 305.556,915.198 313.556,915.531 321.5,916.5C 323.042,918.879 323.709,921.546 323.5,924.5C 323.333,926.5 323.167,928.5 323,930.5C 322.5,931.667 321.667,932.5 320.5,933C 307.5,933.667 294.5,933.667 281.5,933C 279.833,932.167 278.167,931.333 276.5,930.5C 275.646,931.522 274.646,932.355 273.5,933C 259.167,933.667 244.833,933.667 230.5,933C 229.333,932.5 228.5,931.667 228,930.5C 227.5,931.667 226.667,932.5 225.5,933C 219.167,933.667 212.833,933.667 206.5,933C 203.3,930.457 200.8,927.291 199,923.5C 199.609,932.209 195.609,935.542 187,933.5C 184.167,933.333 181.333,933.167 178.5,933C 177.333,932.5 176.5,931.667 176,930.5C 175.5,931.667 174.667,932.5 173.5,933C 167.167,933.667 160.833,933.667 154.5,933C 151.3,930.457 148.8,927.291 147,923.5C 146.667,925.833 146.333,928.167 146,930.5C 145.5,931.667 144.667,932.5 143.5,933C 137.833,933.667 132.167,933.667 126.5,933C 125,932.167 123.833,931 123,929.5C 121.421,931.041 119.587,932.208 117.5,933C 104.833,933.667 92.1667,933.667 79.5,933C 77.8333,932.167 76.1667,931.333 74.5,930.5C 73.646,931.522 72.646,932.355 71.5,933C 58.5,933.667 45.5,933.667 32.5,933C 29,932.167 26.8333,930 26,926.5C 25.3333,914.167 25.3333,901.833 26,889.5C 26.8333,886 29,883.833 32.5,883C 45.5,882.333 58.5,882.333 71.5,883C 72.646,883.645 73.646,884.478 74.5,885.5C 76.1667,884.667 77.8333,883.833 79.5,883C 92.1667,882.333 104.833,882.333 117.5,883C 119.587,883.792 121.421,884.959 123,886.5C 123.833,885 125,883.833 126.5,883C 132.5,882.333 138.5,882.333 144.5,883C 148.031,885.871 150.864,889.371 153,893.5C 153.333,890.833 153.667,888.167 154,885.5C 154.5,884.333 155.333,883.5 156.5,883C 162.167,882.333 167.833,882.333 173.5,883C 174.667,883.5 175.5,884.333 176,885.5C 176.5,884.333 177.333,883.5 178.5,883C 184.5,882.333 190.5,882.333 196.5,883C 200.031,885.871 202.864,889.371 205,893.5C 205.333,890.833 205.667,888.167 206,885.5C 206.5,884.333 207.333,883.5 208.5,883C 214.167,882.333 219.833,882.333 225.5,883C 226.667,883.5 227.5,884.333 228,885.5C 228.5,884.333 229.333,883.5 230.5,883C 244.833,882.333 259.167,882.333 273.5,883C 274.646,883.645 275.646,884.478 276.5,885.5C 278.167,884.667 279.833,883.833 281.5,883C 288,882.833 294.5,882.667 301,882.5C 324.6,882.437 348.266,882.77 372,883.5C 375.79,882.864 379.623,882.197 383.5,881.5C 385.796,876.54 388.796,872.206 392.5,868.5 Z M 53.5,905.5 C 53.5,907.167 53.5,908.833 53.5,910.5C 58.1667,910.5 62.8333,910.5 67.5,910.5C 67.5,908.833 67.5,907.167 67.5,905.5C 62.8333,905.5 58.1667,905.5 53.5,905.5 Z"/></g>
<g><path style="opacity:1" fill="#f5b300" d="M 395.5,873.5 C 398.85,873.335 402.183,873.502 405.5,874C 402.833,877 400.167,880 397.5,883C 394.5,883.667 391.5,883.667 388.5,883C 390.965,879.893 393.298,876.726 395.5,873.5 Z"/></g>
<g><path style="opacity:1" fill="#fefffe" d="M 485.5,877.5 C 500.504,877.333 515.504,877.5 530.5,878C 532.833,880 535.167,880 537.5,878C 551.5,877.333 565.5,877.333 579.5,878C 580.416,878.374 581.25,878.874 582,879.5C 582.75,878.874 583.584,878.374 584.5,878C 591.5,877.333 598.5,877.333 605.5,878C 607.492,878.574 608.992,879.741 610,881.5C 611.008,879.741 612.508,878.574 614.5,878C 636.5,877.333 658.5,877.333 680.5,878C 686,879.5 689.5,883 691,888.5C 691.667,896.167 691.667,903.833 691,911.5C 690.293,913.081 689.46,914.581 688.5,916C 693.762,921.86 694.762,928.36 691.5,935.5C 690.335,936.584 689.002,937.417 687.5,938C 678.359,939.045 669.359,938.545 660.5,936.5C 652.311,938.533 643.977,939.033 635.5,938C 634.584,937.626 633.75,937.126 633,936.5C 632.25,937.126 631.416,937.626 630.5,938C 616.5,938.667 602.5,938.667 588.5,938C 586.919,937.293 585.419,936.46 584,935.5C 582.581,936.46 581.081,937.293 579.5,938C 565.5,938.667 551.5,938.667 537.5,938C 531.143,935.801 527.809,931.301 527.5,924.5C 522.5,924.5 517.5,924.5 512.5,924.5C 513.847,930.629 511.847,935.129 506.5,938C 499.5,938.667 492.5,938.667 485.5,938C 482.667,937.167 480.833,935.333 480,932.5C 479.333,916.167 479.333,899.833 480,883.5C 481.021,880.65 482.854,878.65 485.5,877.5 Z"/></g>
<g><path style="opacity:1" fill="#fefffe" d="M 704.5,877.5 C 711.508,877.334 718.508,877.5 725.5,878C 728.333,878.833 730.167,880.667 731,883.5C 731.5,892.494 731.666,901.494 731.5,910.5C 736.214,910.827 740.88,910.493 745.5,909.5C 749.636,899.229 754.303,889.229 759.5,879.5C 760.5,879 761.5,878.5 762.5,878C 770.833,877.333 779.167,877.333 787.5,878C 789.002,878.583 790.335,879.416 791.5,880.5C 797.941,894.383 804.108,908.383 810,922.5C 811.195,927.6 810.362,932.267 807.5,936.5C 806.5,937 805.5,937.5 804.5,938C 797.5,938.667 790.5,938.667 783.5,938C 782.167,937.333 780.833,936.667 779.5,936C 776.5,928.667 773.5,928.667 770.5,936C 769.167,936.667 767.833,937.333 766.5,938C 745.833,938.667 725.167,938.667 704.5,938C 701.667,937.167 699.833,935.333 699,932.5C 698.333,916.167 698.333,899.833 699,883.5C 700.021,880.65 701.854,878.65 704.5,877.5 Z"/></g>
<g><path style="opacity:1" fill="#010000" d="M 487.5,882.5 C 501.171,882.333 514.837,882.5 528.5,883C 530.587,883.792 532.421,884.959 534,886.5C 535.579,884.959 537.413,883.792 539.5,883C 552.167,882.333 564.833,882.333 577.5,883C 579.587,883.792 581.421,884.959 583,886.5C 583.833,885 585,883.833 586.5,883C 592.167,882.333 597.833,882.333 603.5,883C 604.667,883.5 605.5,884.333 606,885.5C 606.5,895.494 606.666,905.494 606.5,915.5C 608.833,915.5 611.167,915.5 613.5,915.5C 613.334,905.494 613.5,895.494 614,885.5C 614.5,884.333 615.333,883.5 616.5,883C 619.333,882.833 622.167,882.667 625,882.5C 642.789,882.539 660.623,882.706 678.5,883C 685.418,886.508 688.085,892.175 686.5,900C 687.573,906.268 685.906,911.601 681.5,916C 684.616,919.569 686.95,923.569 688.5,928C 688.516,930.305 687.516,931.972 685.5,933C 679.167,933.667 672.833,933.667 666.5,933C 662.969,930.129 660.136,926.629 658,922.5C 657.667,925.167 657.333,927.833 657,930.5C 656.5,931.667 655.667,932.5 654.5,933C 648.833,933.667 643.167,933.667 637.5,933C 636,932.167 634.833,931 634,929.5C 632.421,931.041 630.587,932.208 628.5,933C 615.833,933.667 603.167,933.667 590.5,933C 587.417,932.214 585.251,930.381 584,927.5C 582.749,930.381 580.583,932.214 577.5,933C 564.833,933.667 552.167,933.667 539.5,933C 536,932.167 533.833,930 533,926.5C 532.667,923.167 532.333,919.833 532,916.5C 530.352,917.717 528.519,918.55 526.5,919C 520.175,919.5 513.842,919.666 507.5,919.5C 507.665,923.182 507.499,926.848 507,930.5C 506.692,931.308 506.192,931.975 505.5,932.5C 499.552,933.624 493.552,933.79 487.5,933C 486.692,932.692 486.025,932.192 485.5,931.5C 484.35,916.211 484.183,900.878 485,885.5C 485.698,884.309 486.531,883.309 487.5,882.5 Z"/></g>
<g><path style="opacity:1" fill="#010000" d="M 706.5,882.5 C 712.176,882.334 717.843,882.501 723.5,883C 724.308,883.308 724.975,883.808 725.5,884.5C 726.476,894.781 726.809,905.114 726.5,915.5C 733.841,915.666 741.174,915.5 748.5,915C 753.214,904.354 758.214,893.854 763.5,883.5C 770.783,882.368 778.117,882.201 785.5,883C 786.308,883.308 786.975,883.808 787.5,884.5C 794.286,898.531 800.286,912.865 805.5,927.5C 805.563,929.481 804.896,931.148 803.5,932.5C 797.552,933.624 791.552,933.79 785.5,933C 782.866,931.414 781.199,929.08 780.5,926C 776.833,925.333 773.167,925.333 769.5,926C 768.801,929.08 767.134,931.414 764.5,933C 745.167,933.667 725.833,933.667 706.5,933C 705.333,932.5 704.5,931.667 704,930.5C 703.333,915.5 703.333,900.5 704,885.5C 704.698,884.309 705.531,883.309 706.5,882.5 Z"/></g>
<g><path style="opacity:1" fill="#fe3d00" d="M 35.5,887.5 C 46.8333,887.5 58.1667,887.5 69.5,887.5C 69.5,890.167 69.5,892.833 69.5,895.5C 60.8333,895.5 52.1667,895.5 43.5,895.5C 43.5,903.833 43.5,912.167 43.5,920.5C 52.1667,920.5 60.8333,920.5 69.5,920.5C 69.5,923.167 69.5,925.833 69.5,928.5C 58.1618,928.667 46.8284,928.5 35.5,928C 33.714,927.215 32.214,926.049 31,924.5C 30.3333,913.5 30.3333,902.5 31,891.5C 32.3968,889.93 33.8968,888.596 35.5,887.5 Z"/></g>
<g><path style="opacity:1" fill="#f8b500" d="M 82.5,887.5 C 93.1719,887.333 103.839,887.5 114.5,888C 116.286,888.785 117.786,889.951 119,891.5C 120.617,901.734 120.95,912.067 120,922.5C 119.215,924.286 118.049,925.786 116.5,927C 105.264,928.622 93.9308,928.955 82.5,928C 81.0692,927.535 79.9025,926.701 79,925.5C 77.3781,914.264 77.0448,902.931 78,891.5C 79.3968,889.93 80.8968,888.596 82.5,887.5 Z"/></g>
<g><path style="opacity:1" fill="#fab600" d="M 142.5,906.5 C 142.217,905.711 141.717,905.044 141,904.5C 140.5,912.493 140.334,920.493 140.5,928.5C 136.5,928.5 132.5,928.5 128.5,928.5C 128.5,914.833 128.5,901.167 128.5,887.5C 133.179,887.334 137.845,887.501 142.5,888C 147.296,895.761 152.463,903.261 158,910.5C 158.5,902.841 158.666,895.174 158.5,887.5C 162.833,887.5 167.167,887.5 171.5,887.5C 171.5,901.167 171.5,914.833 171.5,928.5C 166.821,928.666 162.155,928.499 157.5,928C 152.28,920.953 147.28,913.787 142.5,906.5 Z"/></g>
<g><path style="opacity:1" fill="#fab600" d="M 194.5,906.5 C 194.217,905.711 193.717,905.044 193,904.5C 192.5,912.493 192.334,920.493 192.5,928.5C 188.5,928.5 184.5,928.5 180.5,928.5C 180.5,914.833 180.5,901.167 180.5,887.5C 185.179,887.334 189.845,887.501 194.5,888C 199.296,895.761 204.463,903.261 210,910.5C 210.5,902.841 210.666,895.174 210.5,887.5C 214.833,887.5 219.167,887.5 223.5,887.5C 223.5,901.167 223.5,914.833 223.5,928.5C 218.821,928.666 214.155,928.499 209.5,928C 204.28,920.953 199.28,913.787 194.5,906.5 Z"/></g>
<g><path style="opacity:1" fill="#f8b500" d="M 232.5,887.5 C 245.5,887.5 258.5,887.5 271.5,887.5C 271.5,890.167 271.5,892.833 271.5,895.5C 262.833,895.5 254.167,895.5 245.5,895.5C 245.5,898.167 245.5,900.833 245.5,903.5C 253.167,903.5 260.833,903.5 268.5,903.5C 268.5,906.167 268.5,908.833 268.5,911.5C 260.833,911.5 253.167,911.5 245.5,911.5C 245.5,914.5 245.5,917.5 245.5,920.5C 254.167,920.5 262.833,920.5 271.5,920.5C 271.5,923.167 271.5,925.833 271.5,928.5C 258.5,928.5 245.5,928.5 232.5,928.5C 232.5,914.833 232.5,901.167 232.5,887.5 Z"/></g>
<g><path style="opacity:1" fill="#f7b400" d="M 284.5,887.5 C 295.833,887.5 307.167,887.5 318.5,887.5C 318.5,890.167 318.5,892.833 318.5,895.5C 309.833,895.5 301.167,895.5 292.5,895.5C 292.5,903.833 292.5,912.167 292.5,920.5C 301.167,920.5 309.833,920.5 318.5,920.5C 318.5,923.167 318.5,925.833 318.5,928.5C 307.162,928.667 295.828,928.5 284.5,928C 283.069,927.535 281.903,926.701 281,925.5C 279.378,914.264 279.045,902.931 280,891.5C 281.397,889.93 282.897,888.596 284.5,887.5 Z"/></g>
<g><path style="opacity:1" fill="#f7b400" d="M 323.5,887.5 C 338.833,887.5 354.167,887.5 369.5,887.5C 369.5,890.167 369.5,892.833 369.5,895.5C 364.167,895.5 358.833,895.5 353.5,895.5C 353.5,906.5 353.5,917.5 353.5,928.5C 349.167,928.5 344.833,928.5 340.5,928.5C 340.5,917.5 340.5,906.5 340.5,895.5C 334.833,895.5 329.167,895.5 323.5,895.5C 323.5,892.833 323.5,890.167 323.5,887.5 Z"/></g>
<g><path style="opacity:1" fill="#f8b500" d="M 374.5,887.5 C 387.5,887.5 400.5,887.5 413.5,887.5C 413.5,890.167 413.5,892.833 413.5,895.5C 404.833,895.5 396.167,895.5 387.5,895.5C 387.5,898.167 387.5,900.833 387.5,903.5C 395.167,903.5 402.833,903.5 410.5,903.5C 410.5,906.167 410.5,908.833 410.5,911.5C 402.833,911.5 395.167,911.5 387.5,911.5C 387.5,914.5 387.5,917.5 387.5,920.5C 396.167,920.5 404.833,920.5 413.5,920.5C 413.5,923.167 413.5,925.833 413.5,928.5C 400.5,928.5 387.5,928.5 374.5,928.5C 374.5,914.833 374.5,901.167 374.5,887.5 Z"/></g>
<g><path style="opacity:1" fill="#f8b500" d="M 459.5,887.5 C 459.5,889.833 459.5,892.167 459.5,894.5C 451.316,894.174 443.316,894.508 435.5,895.5C 434.527,897.948 434.194,900.615 434.5,903.5C 442.943,903.062 451.277,903.562 459.5,905C 461.049,906.214 462.215,907.714 463,909.5C 463.888,914.618 463.555,919.618 462,924.5C 460.786,926.049 459.286,927.215 457.5,928C 445.505,928.5 433.505,928.667 421.5,928.5C 421.5,925.833 421.5,923.167 421.5,920.5C 431.167,920.5 440.833,920.5 450.5,920.5C 450.5,917.5 450.5,914.5 450.5,911.5C 442.083,911.906 433.749,911.406 425.5,910C 424.333,908.833 423.167,907.667 422,906.5C 421.333,901.833 421.333,897.167 422,892.5C 422.833,890.333 424.333,888.833 426.5,888C 437.495,887.5 448.495,887.333 459.5,887.5 Z"/></g>
<g><path style="opacity:1" fill="#f8b500" d="M 489.5,887.5 C 501.505,887.333 513.505,887.5 525.5,888C 528,889.167 529.833,891 531,893.5C 531.667,898.167 531.667,902.833 531,907.5C 530.067,911.395 527.567,913.562 523.5,914C 516.508,914.5 509.508,914.666 502.5,914.5C 502.5,919.167 502.5,923.833 502.5,928.5C 498.167,928.5 493.833,928.5 489.5,928.5C 489.5,914.833 489.5,901.167 489.5,887.5 Z"/></g>
<g><path style="opacity:1" fill="#f8b500" d="M 542.5,887.5 C 553.172,887.333 563.839,887.5 574.5,888C 576.286,888.785 577.786,889.951 579,891.5C 580.617,901.734 580.95,912.067 580,922.5C 579.215,924.286 578.049,925.786 576.5,927C 565.264,928.622 553.931,928.955 542.5,928C 541.069,927.535 539.903,926.701 539,925.5C 537.378,914.264 537.045,902.931 538,891.5C 539.397,889.93 540.897,888.596 542.5,887.5 Z"/></g>
<g><path style="opacity:1" fill="#f8b500" d="M 588.5,887.5 C 592.833,887.5 597.167,887.5 601.5,887.5C 601.5,898.5 601.5,909.5 601.5,920.5C 607.167,920.5 612.833,920.5 618.5,920.5C 618.5,909.5 618.5,898.5 618.5,887.5C 622.833,887.5 627.167,887.5 631.5,887.5C 631.96,899.934 631.46,912.267 630,924.5C 628.786,926.049 627.286,927.215 625.5,928C 614.833,928.667 604.167,928.667 593.5,928C 592.069,927.535 590.903,926.701 590,925.5C 588.539,912.933 588.039,900.266 588.5,887.5 Z"/></g>
<g><path style="opacity:1" fill="#f8b500" d="M 639.5,887.5 C 651.505,887.333 663.505,887.5 675.5,888C 677.286,888.785 678.786,889.951 680,891.5C 681.555,896.382 681.888,901.382 681,906.5C 679.935,910.296 677.435,912.63 673.5,913.5C 676.5,918.167 679.5,922.833 682.5,927.5C 677.869,928.662 673.202,928.828 668.5,928C 665.376,923.586 662.376,919.086 659.5,914.5C 657.257,913.526 654.924,913.192 652.5,913.5C 652.5,918.5 652.5,923.5 652.5,928.5C 648.167,928.5 643.833,928.5 639.5,928.5C 639.5,914.833 639.5,901.167 639.5,887.5 Z"/></g>
<g><path style="opacity:1" fill="#f8b500" d="M 708.5,887.5 C 712.833,887.5 717.167,887.5 721.5,887.5C 721.5,898.5 721.5,909.5 721.5,920.5C 729.833,920.5 738.167,920.5 746.5,920.5C 746.5,923.167 746.5,925.833 746.5,928.5C 733.833,928.5 721.167,928.5 708.5,928.5C 708.5,914.833 708.5,901.167 708.5,887.5 Z"/></g>
<g><path style="opacity:1" fill="#f9b600" d="M 766.5,887.5 C 772.206,887.171 777.872,887.505 783.5,888.5C 789.038,901.74 794.704,914.907 800.5,928C 796.129,928.828 791.795,928.661 787.5,927.5C 786.399,925.358 785.399,923.192 784.5,921C 778.167,920.333 771.833,920.333 765.5,921C 764.214,923.022 763.214,925.189 762.5,927.5C 758.205,928.661 753.871,928.828 749.5,928C 755.584,914.666 761.251,901.166 766.5,887.5 Z"/></g>
<g><path style="opacity:0.686" fill="#a47800" d="M 459.5,887.5 C 460.473,889.948 460.806,892.615 460.5,895.5C 452.167,895.5 443.833,895.5 435.5,895.5C 443.316,894.508 451.316,894.174 459.5,894.5C 459.5,892.167 459.5,889.833 459.5,887.5 Z"/></g>
<g><path style="opacity:1" fill="#000000" d="M 90.5,895.5 C 96.1667,895.5 101.833,895.5 107.5,895.5C 107.5,903.833 107.5,912.167 107.5,920.5C 101.833,920.5 96.1667,920.5 90.5,920.5C 90.5,912.167 90.5,903.833 90.5,895.5 Z"/></g>
<g><path style="opacity:1" fill="#0d0c0c" d="M 502.5,895.5 C 507.833,895.5 513.167,895.5 518.5,895.5C 518.789,899.106 518.456,902.606 517.5,906C 512.511,906.499 507.511,906.666 502.5,906.5C 502.5,902.833 502.5,899.167 502.5,895.5 Z"/></g>
<g><path style="opacity:1" fill="#000000" d="M 550.5,895.5 C 556.167,895.5 561.833,895.5 567.5,895.5C 567.5,903.833 567.5,912.167 567.5,920.5C 561.833,920.5 556.167,920.5 550.5,920.5C 550.5,912.167 550.5,903.833 550.5,895.5 Z"/></g>
<g><path style="opacity:0.992" fill="#010000" d="M 652.5,895.5 C 657.833,895.5 663.167,895.5 668.5,895.5C 668.784,898.777 668.451,901.943 667.5,905C 662.511,905.499 657.511,905.666 652.5,905.5C 652.5,902.167 652.5,898.833 652.5,895.5 Z"/></g>
<g><path style="opacity:0.992" fill="#fbfcfb" d="M 71.5,899.5 C 72.6517,904.985 72.8184,910.651 72,916.5C 64.253,915.518 56.4197,915.185 48.5,915.5C 48.5,910.5 48.5,905.5 48.5,900.5C 56.3516,900.825 64.0182,900.492 71.5,899.5 Z M 53.5,905.5 C 53.5,907.167 53.5,908.833 53.5,910.5C 58.1667,910.5 62.8333,910.5 67.5,910.5C 67.5,908.833 67.5,907.167 67.5,905.5C 62.8333,905.5 58.1667,905.5 53.5,905.5 Z"/></g>
<g><path style="opacity:1" fill="#fefffe" d="M 273.5,899.5 C 274.652,904.985 274.818,910.651 274,916.5C 273.308,915.975 272.808,915.308 272.5,914.5C 273.405,909.352 273.738,904.352 273.5,899.5 Z"/></g>
<g><path style="opacity:1" fill="#fefffe" d="M 415.5,899.5 C 416.321,902.641 416.821,905.975 417,909.5C 418.167,912 420,913.833 422.5,915C 420.863,915.601 419.197,916.101 417.5,916.5C 416,916.547 415,915.881 414.5,914.5C 415.405,909.352 415.738,904.352 415.5,899.5 Z"/></g>
<g><path style="opacity:1" fill="#080500" d="M 774.5,898.5 C 776.725,902.623 778.725,906.956 780.5,911.5C 776.893,912.489 773.226,912.823 769.5,912.5C 771.16,907.844 772.826,903.177 774.5,898.5 Z"/></g>
<g><path style="opacity:0.992" fill="#fbfcfb" d="M 95.5,900.5 C 97.8333,900.5 100.167,900.5 102.5,900.5C 102.5,905.5 102.5,910.5 102.5,915.5C 100.167,915.5 97.8333,915.5 95.5,915.5C 95.5,910.5 95.5,905.5 95.5,900.5 Z"/></g>
<g><path style="opacity:1" fill="#fefffe" d="M 555.5,900.5 C 557.833,900.5 560.167,900.5 562.5,900.5C 562.5,905.5 562.5,910.5 562.5,915.5C 560.167,915.5 557.833,915.5 555.5,915.5C 555.5,910.5 555.5,905.5 555.5,900.5 Z"/></g>
<g><path style="opacity:0.651" fill="#a27600" d="M 142.5,906.5 C 141.833,913.833 141.167,921.167 140.5,928.5C 140.334,920.493 140.5,912.493 141,904.5C 141.717,905.044 142.217,905.711 142.5,906.5 Z"/></g>
<g><path style="opacity:0.651" fill="#a27600" d="M 194.5,906.5 C 193.833,913.833 193.167,921.167 192.5,928.5C 192.334,920.493 192.5,912.493 193,904.5C 193.717,905.044 194.217,905.711 194.5,906.5 Z"/></g>
<g><path style="opacity:1" fill="#000000" d="M 363.5,943.5 C 368.897,943.215 374.23,943.549 379.5,944.5C 382.471,949.179 381.804,953.346 377.5,957C 381.195,957.318 384.862,957.818 388.5,958.5C 402.807,957.367 417.141,957.2 431.5,958C 434.102,958.883 436.269,960.383 438,962.5C 439.109,960.185 440.943,958.685 443.5,958C 456.167,957.333 468.833,957.333 481.5,958C 483.587,958.792 485.421,959.959 487,961.5C 487.833,960 489,958.833 490.5,958C 496.167,957.333 501.833,957.333 507.5,958C 508.667,958.5 509.5,959.333 510,960.5C 510.5,970.494 510.666,980.494 510.5,990.5C 517.167,990.5 523.833,990.5 530.5,990.5C 530.334,981.827 530.5,973.16 531,964.5C 531.833,961 534,958.833 537.5,958C 550.167,957.333 562.833,957.333 575.5,958C 578.583,958.786 580.749,960.619 582,963.5C 583.663,961.083 585.829,959.25 588.5,958C 601.833,957.333 615.167,957.333 628.5,958C 629.667,958.5 630.5,959.333 631,960.5C 631.796,964.755 631.629,968.921 630.5,973C 631,973.5 631.5,974 632,974.5C 632.333,969.833 632.667,965.167 633,960.5C 633.5,959.333 634.333,958.5 635.5,958C 656.784,957.661 678.118,957.661 699.5,958C 700.667,958.5 701.5,959.333 702,960.5C 702.667,964.5 702.667,968.5 702,972.5C 701.167,974 700,975.167 698.5,976C 699.811,980.469 699.811,984.969 698.5,989.5C 701.889,991.925 703.222,995.258 702.5,999.5C 702.333,1001.5 702.167,1003.5 702,1005.5C 701.5,1006.67 700.667,1007.5 699.5,1008C 662.5,1008.67 625.5,1008.67 588.5,1008C 585.829,1006.75 583.663,1004.92 582,1002.5C 580.749,1005.38 578.583,1007.21 575.5,1008C 562.833,1008.67 550.167,1008.67 537.5,1008C 536.584,1007.63 535.75,1007.13 535,1006.5C 534.25,1007.13 533.416,1007.63 532.5,1008C 518.5,1008.67 504.5,1008.67 490.5,1008C 489,1007.17 487.833,1006 487,1004.5C 485.421,1006.04 483.587,1007.21 481.5,1008C 468.833,1008.67 456.167,1008.67 443.5,1008C 442.584,1007.63 441.75,1007.13 441,1006.5C 440.25,1007.13 439.416,1007.63 438.5,1008C 431.392,1008.92 424.392,1008.59 417.5,1007C 414.963,1004.09 412.796,1000.93 411,997.5C 410.667,1000.17 410.333,1002.83 410,1005.5C 409.5,1006.67 408.667,1007.5 407.5,1008C 386.216,1008.34 364.882,1008.34 343.5,1008C 342.333,1007.5 341.5,1006.67 341,1005.5C 340.5,995.506 340.334,985.506 340.5,975.5C 336.833,975.5 333.167,975.5 329.5,975.5C 329.666,985.506 329.5,995.506 329,1005.5C 328.5,1006.67 327.667,1007.5 326.5,1008C 320.833,1008.67 315.167,1008.67 309.5,1008C 308.333,1007.5 307.5,1006.67 307,1005.5C 306.5,995.506 306.334,985.506 306.5,975.5C 303.167,975.5 299.833,975.5 296.5,975.5C 297.653,981.932 295.986,987.432 291.5,992C 289.913,992.862 288.246,993.529 286.5,994C 280.175,994.5 273.842,994.666 267.5,994.5C 267.665,998.182 267.499,1001.85 267,1005.5C 266.5,1006.67 265.667,1007.5 264.5,1008C 258.833,1008.67 253.167,1008.67 247.5,1008C 246,1007.17 244.833,1006 244,1004.5C 242.421,1006.04 240.587,1007.21 238.5,1008C 225.833,1008.67 213.167,1008.67 200.5,1008C 199.584,1007.63 198.75,1007.13 198,1006.5C 197.25,1007.13 196.416,1007.63 195.5,1008C 189.167,1008.67 182.833,1008.67 176.5,1008C 172.969,1005.13 170.136,1001.63 168,997.5C 167.667,1000.17 167.333,1002.83 167,1005.5C 166.5,1006.67 165.667,1007.5 164.5,1008C 147.667,1008.17 130.833,1008.33 114,1008.5C 111.167,1008.33 108.333,1008.17 105.5,1008C 104.692,1007.69 104.025,1007.19 103.5,1006.5C 102.552,1001.56 102.219,996.565 102.5,991.5C 100.167,991.5 97.8333,991.5 95.5,991.5C 95.6658,996.179 95.4992,1000.85 95,1005.5C 94.5,1006.67 93.6667,1007.5 92.5,1008C 72.5485,1008.31 52.5485,1008.31 32.5,1008C 29,1007.17 26.8333,1005 26,1001.5C 25.3333,989.167 25.3333,976.833 26,964.5C 26.8333,961 29,958.833 32.5,958C 52.5485,957.695 72.5485,957.695 92.5,958C 93.6667,958.5 94.5,959.333 95,960.5C 95.499,964.821 95.6657,969.154 95.5,973.5C 97.8333,973.5 100.167,973.5 102.5,973.5C 102.334,969.154 102.501,964.821 103,960.5C 103.5,959.333 104.333,958.5 105.5,958C 133.082,958.209 160.749,958.209 188.5,958C 191.102,958.883 193.269,960.383 195,962.5C 196.109,960.185 197.943,958.685 200.5,958C 213.167,957.333 225.833,957.333 238.5,958C 240.587,958.792 242.421,959.959 244,961.5C 244.833,960 246,958.833 247.5,958C 279.361,957.759 311.195,957.925 343,958.5C 346.79,957.864 350.623,957.197 354.5,956.5C 356.796,951.54 359.796,947.206 363.5,943.5 Z M 53.5,980.5 C 53.5,982.167 53.5,983.833 53.5,985.5C 58.1667,985.5 62.8333,985.5 67.5,985.5C 67.5,983.833 67.5,982.167 67.5,980.5C 62.8333,980.5 58.1667,980.5 53.5,980.5 Z M 435.5,989.5 C 434.105,990.648 434.272,991.648 436,992.5C 436.74,991.251 436.573,990.251 435.5,989.5 Z"/></g>
<g><path style="opacity:1" fill="#f5b300" d="M 366.5,948.5 C 369.85,948.335 373.183,948.502 376.5,949C 373.833,952 371.167,955 368.5,958C 365.5,958.667 362.5,958.667 359.5,958C 361.965,954.893 364.298,951.726 366.5,948.5 Z"/></g>
<g><path style="opacity:1" fill="#fe3d00" d="M 35.5,962.5 C 46.8333,962.5 58.1667,962.5 69.5,962.5C 69.5,965.167 69.5,967.833 69.5,970.5C 60.8333,970.5 52.1667,970.5 43.5,970.5C 43.5,978.833 43.5,987.167 43.5,995.5C 52.1667,995.5 60.8333,995.5 69.5,995.5C 69.5,998.167 69.5,1000.83 69.5,1003.5C 58.1618,1003.67 46.8284,1003.5 35.5,1003C 33.714,1002.22 32.214,1001.05 31,999.5C 30.3333,988.5 30.3333,977.5 31,966.5C 32.3968,964.93 33.8968,963.596 35.5,962.5 Z"/></g>
<g><path style="opacity:1" fill="#feba00" d="M 77.5,962.5 C 81.8333,962.5 86.1667,962.5 90.5,962.5C 90.5,967.833 90.5,973.167 90.5,978.5C 96.1667,978.5 101.833,978.5 107.5,978.5C 107.5,973.167 107.5,967.833 107.5,962.5C 111.833,962.5 116.167,962.5 120.5,962.5C 120.5,976.167 120.5,989.833 120.5,1003.5C 116.167,1003.5 111.833,1003.5 107.5,1003.5C 107.5,997.833 107.5,992.167 107.5,986.5C 101.833,986.5 96.1667,986.5 90.5,986.5C 90.5,992.167 90.5,997.833 90.5,1003.5C 86.1667,1003.5 81.8333,1003.5 77.5,1003.5C 77.5,989.833 77.5,976.167 77.5,962.5 Z"/></g>
<g><path style="opacity:1" fill="#feba00" d="M 128.5,962.5 C 132.833,962.5 137.167,962.5 141.5,962.5C 141.5,976.167 141.5,989.833 141.5,1003.5C 137.167,1003.5 132.833,1003.5 128.5,1003.5C 128.5,989.833 128.5,976.167 128.5,962.5 Z"/></g>
<g><path style="opacity:1" fill="#feba00" d="M 149.5,962.5 C 161.838,962.333 174.171,962.5 186.5,963C 188.815,964.109 190.315,965.943 191,968.5C 191.839,973.921 191.506,979.254 190,984.5C 188.189,986.543 186.022,988.043 183.5,989C 186.624,993.414 189.624,997.914 192.5,1002.5C 187.869,1003.66 183.202,1003.83 178.5,1003C 175.376,998.586 172.376,994.086 169.5,989.5C 167.257,988.526 164.924,988.192 162.5,988.5C 162.5,993.5 162.5,998.5 162.5,1003.5C 158.167,1003.5 153.833,1003.5 149.5,1003.5C 149.5,989.833 149.5,976.167 149.5,962.5 Z"/></g>
<g><path style="opacity:1" fill="#f8b500" d="M 203.5,962.5 C 214.172,962.333 224.839,962.5 235.5,963C 237.286,963.785 238.786,964.951 240,966.5C 241.617,976.734 241.95,987.067 241,997.5C 240.215,999.286 239.049,1000.79 237.5,1002C 226.264,1003.62 214.931,1003.96 203.5,1003C 202.069,1002.53 200.903,1001.7 200,1000.5C 198.378,989.264 198.045,977.931 199,966.5C 200.397,964.93 201.897,963.596 203.5,962.5 Z"/></g>
<g><path style="opacity:1" fill="#f8b500" d="M 249.5,962.5 C 261.505,962.333 273.505,962.5 285.5,963C 288,964.167 289.833,966 291,968.5C 291.667,973.167 291.667,977.833 291,982.5C 290.067,986.395 287.567,988.562 283.5,989C 276.508,989.5 269.508,989.666 262.5,989.5C 262.5,994.167 262.5,998.833 262.5,1003.5C 258.167,1003.5 253.833,1003.5 249.5,1003.5C 249.5,989.833 249.5,976.167 249.5,962.5 Z"/></g>
<g><path style="opacity:1" fill="#f7b400" d="M 294.5,962.5 C 309.833,962.5 325.167,962.5 340.5,962.5C 340.5,965.167 340.5,967.833 340.5,970.5C 335.167,970.5 329.833,970.5 324.5,970.5C 324.5,981.5 324.5,992.5 324.5,1003.5C 320.167,1003.5 315.833,1003.5 311.5,1003.5C 311.5,992.5 311.5,981.5 311.5,970.5C 305.833,970.5 300.167,970.5 294.5,970.5C 294.5,967.833 294.5,965.167 294.5,962.5 Z"/></g>
<g><path style="opacity:1" fill="#f8b500" d="M 345.5,962.5 C 358.5,962.5 371.5,962.5 384.5,962.5C 384.5,965.167 384.5,967.833 384.5,970.5C 375.833,970.5 367.167,970.5 358.5,970.5C 358.5,973.167 358.5,975.833 358.5,978.5C 366.167,978.5 373.833,978.5 381.5,978.5C 381.5,981.167 381.5,983.833 381.5,986.5C 373.833,986.5 366.167,986.5 358.5,986.5C 358.5,989.5 358.5,992.5 358.5,995.5C 367.167,995.5 375.833,995.5 384.5,995.5C 384.5,998.167 384.5,1000.83 384.5,1003.5C 371.5,1003.5 358.5,1003.5 345.5,1003.5C 345.5,989.833 345.5,976.167 345.5,962.5 Z"/></g>
<g><path style="opacity:1" fill="#f8b500" d="M 392.5,962.5 C 404.505,962.333 416.505,962.5 428.5,963C 430.286,963.785 431.786,964.951 433,966.5C 434.555,971.382 434.888,976.382 434,981.5C 432.935,985.296 430.435,987.63 426.5,988.5C 429.5,993.167 432.5,997.833 435.5,1002.5C 430.869,1003.66 426.202,1003.83 421.5,1003C 418.376,998.586 415.376,994.086 412.5,989.5C 410.257,988.526 407.924,988.192 405.5,988.5C 405.5,993.5 405.5,998.5 405.5,1003.5C 401.167,1003.5 396.833,1003.5 392.5,1003.5C 392.5,989.833 392.5,976.167 392.5,962.5 Z"/></g>
<g><path style="opacity:1" fill="#f8b500" d="M 446.5,962.5 C 457.172,962.333 467.839,962.5 478.5,963C 480.286,963.785 481.786,964.951 483,966.5C 484.617,976.734 484.95,987.067 484,997.5C 483.215,999.286 482.049,1000.79 480.5,1002C 469.264,1003.62 457.931,1003.96 446.5,1003C 445.069,1002.53 443.903,1001.7 443,1000.5C 441.378,989.264 441.045,977.931 442,966.5C 443.397,964.93 444.897,963.596 446.5,962.5 Z"/></g>
<g><path style="opacity:1" fill="#f8b500" d="M 492.5,962.5 C 496.833,962.5 501.167,962.5 505.5,962.5C 505.5,973.5 505.5,984.5 505.5,995.5C 513.833,995.5 522.167,995.5 530.5,995.5C 530.5,998.167 530.5,1000.83 530.5,1003.5C 517.833,1003.5 505.167,1003.5 492.5,1003.5C 492.5,989.833 492.5,976.167 492.5,962.5 Z"/></g>
<g><path style="opacity:1" fill="#f8b500" d="M 540.5,962.5 C 551.172,962.333 561.839,962.5 572.5,963C 574.286,963.785 575.786,964.951 577,966.5C 578.617,976.734 578.95,987.067 578,997.5C 577.215,999.286 576.049,1000.79 574.5,1002C 563.264,1003.62 551.931,1003.96 540.5,1003C 539.069,1002.53 537.903,1001.7 537,1000.5C 535.378,989.264 535.045,977.931 536,966.5C 537.397,964.93 538.897,963.596 540.5,962.5 Z"/></g>
<g><path style="opacity:1" fill="#f7b400" d="M 591.5,962.5 C 603.167,962.5 614.833,962.5 626.5,962.5C 626.5,965.167 626.5,967.833 626.5,970.5C 617.5,970.5 608.5,970.5 599.5,970.5C 599.5,978.833 599.5,987.167 599.5,995.5C 605.167,995.5 610.833,995.5 616.5,995.5C 616.5,992.5 616.5,989.5 616.5,986.5C 613.833,986.5 611.167,986.5 608.5,986.5C 608.5,983.833 608.5,981.167 608.5,978.5C 615.5,978.5 622.5,978.5 629.5,978.5C 629.5,986.833 629.5,995.167 629.5,1003.5C 616.829,1003.67 604.162,1003.5 591.5,1003C 590.069,1002.53 588.903,1001.7 588,1000.5C 586.378,989.264 586.045,977.931 587,966.5C 588.397,964.93 589.897,963.596 591.5,962.5 Z"/></g>
<g><path style="opacity:1" fill="#f8b500" d="M 637.5,962.5 C 641.833,962.5 646.167,962.5 650.5,962.5C 650.5,976.167 650.5,989.833 650.5,1003.5C 646.167,1003.5 641.833,1003.5 637.5,1003.5C 637.5,989.833 637.5,976.167 637.5,962.5 Z"/></g>
<g><path style="opacity:1" fill="#f8b500" d="M 658.5,962.5 C 671.5,962.5 684.5,962.5 697.5,962.5C 697.5,965.167 697.5,967.833 697.5,970.5C 688.833,970.5 680.167,970.5 671.5,970.5C 671.5,973.167 671.5,975.833 671.5,978.5C 679.167,978.5 686.833,978.5 694.5,978.5C 694.5,981.167 694.5,983.833 694.5,986.5C 686.833,986.5 679.167,986.5 671.5,986.5C 671.5,989.5 671.5,992.5 671.5,995.5C 680.167,995.5 688.833,995.5 697.5,995.5C 697.5,998.167 697.5,1000.83 697.5,1003.5C 684.5,1003.5 671.5,1003.5 658.5,1003.5C 658.5,989.833 658.5,976.167 658.5,962.5 Z"/></g>
<g><path style="opacity:1" fill="#000000" d="M 162.5,970.5 C 167.511,970.334 172.511,970.501 177.5,971C 179.091,974.275 178.758,977.275 176.5,980C 171.845,980.499 167.179,980.666 162.5,980.5C 162.5,977.167 162.5,973.833 162.5,970.5 Z"/></g>
<g><path style="opacity:1" fill="#000000" d="M 211.5,970.5 C 217.167,970.5 222.833,970.5 228.5,970.5C 228.5,978.833 228.5,987.167 228.5,995.5C 222.833,995.5 217.167,995.5 211.5,995.5C 211.5,987.167 211.5,978.833 211.5,970.5 Z"/></g>
<g><path style="opacity:1" fill="#0d0c0c" d="M 262.5,970.5 C 267.833,970.5 273.167,970.5 278.5,970.5C 278.789,974.106 278.456,977.606 277.5,981C 272.511,981.499 267.511,981.666 262.5,981.5C 262.5,977.833 262.5,974.167 262.5,970.5 Z"/></g>
<g><path style="opacity:1" fill="#010000" d="M 405.5,970.5 C 410.833,970.5 416.167,970.5 421.5,970.5C 421.784,973.777 421.451,976.943 420.5,980C 415.511,980.499 410.511,980.666 405.5,980.5C 405.5,977.167 405.5,973.833 405.5,970.5 Z"/></g>
<g><path style="opacity:1" fill="#000000" d="M 454.5,970.5 C 460.167,970.5 465.833,970.5 471.5,970.5C 471.5,978.833 471.5,987.167 471.5,995.5C 465.833,995.5 460.167,995.5 454.5,995.5C 454.5,987.167 454.5,978.833 454.5,970.5 Z"/></g>
<g><path style="opacity:1" fill="#000000" d="M 548.5,970.5 C 554.167,970.5 559.833,970.5 565.5,970.5C 565.5,978.833 565.5,987.167 565.5,995.5C 559.833,995.5 554.167,995.5 548.5,995.5C 548.5,987.167 548.5,978.833 548.5,970.5 Z"/></g>
<g><path style="opacity:1" fill="#fefffe" d="M 71.5,974.5 C 72.6517,979.985 72.8184,985.651 72,991.5C 64.253,990.518 56.4197,990.185 48.5,990.5C 48.5,985.5 48.5,980.5 48.5,975.5C 56.3516,975.825 64.0182,975.492 71.5,974.5 Z M 53.5,980.5 C 53.5,982.167 53.5,983.833 53.5,985.5C 58.1667,985.5 62.8333,985.5 67.5,985.5C 67.5,983.833 67.5,982.167 67.5,980.5C 62.8333,980.5 58.1667,980.5 53.5,980.5 Z"/></g>
<g><path style="opacity:1" fill="#fefffe" d="M 386.5,974.5 C 387.652,979.985 387.818,985.651 387,991.5C 386.308,990.975 385.808,990.308 385.5,989.5C 386.405,984.352 386.738,979.352 386.5,974.5 Z"/></g>
<g><path style="opacity:1" fill="#fefffe" d="M 216.5,975.5 C 218.833,975.5 221.167,975.5 223.5,975.5C 223.5,980.5 223.5,985.5 223.5,990.5C 221.167,990.5 218.833,990.5 216.5,990.5C 216.5,985.5 216.5,980.5 216.5,975.5 Z"/></g>
<g><path style="opacity:1" fill="#fefffe" d="M 459.5,975.5 C 461.833,975.5 464.167,975.5 466.5,975.5C 466.5,980.5 466.5,985.5 466.5,990.5C 464.167,990.5 461.833,990.5 459.5,990.5C 459.5,985.5 459.5,980.5 459.5,975.5 Z"/></g>
<g><path style="opacity:1" fill="#fefffe" d="M 553.5,975.5 C 555.833,975.5 558.167,975.5 560.5,975.5C 560.5,980.5 560.5,985.5 560.5,990.5C 558.167,990.5 555.833,990.5 553.5,990.5C 553.5,985.5 553.5,980.5 553.5,975.5 Z"/></g>
<g><path style="opacity:1" fill="#fefffe" d="M 192.5,989.5 C 193.573,990.251 193.74,991.251 193,992.5C 191.272,991.648 191.105,990.648 192.5,989.5 Z"/></g>
</svg>
