<?xml version="1.0" encoding="UTF-8"?>
<!DOCTYPE svg PUBLIC "-//W3C//DTD SVG 1.1//EN" "http://www.w3.org/Graphics/SVG/1.1/DTD/svg11.dtd">
<svg xmlns="http://www.w3.org/2000/svg" version="1.1" width="941px" height="336px" style="shape-rendering:geometricPrecision; text-rendering:geometricPrecision; image-rendering:optimizeQuality; fill-rule:evenodd; clip-rule:evenodd" xmlns:xlink="http://www.w3.org/1999/xlink">
<g><path style="opacity:1" fill="#fefffe" d="M 31.5,20.5 C 106.501,20.3333 181.501,20.5 256.5,21C 269.802,22.5453 282.136,26.8787 293.5,34C 305.733,43.953 313.233,56.7864 316,72.5C 316.667,102.5 316.667,132.5 316,162.5C 313.248,179.199 305.081,192.365 291.5,202C 286.008,204.579 280.675,207.412 275.5,210.5C 293.249,236.996 310.749,263.662 328,290.5C 328.667,295.167 328.667,299.833 328,304.5C 326.833,309 324,311.833 319.5,313C 286.167,313.667 252.833,313.667 219.5,313C 216.34,312.009 213.84,310.176 212,307.5C 191.667,276.833 171.333,246.167 151,215.5C 144.924,214.524 138.758,214.19 132.5,214.5C 132.667,244.502 132.5,274.502 132,304.5C 130.833,309 128,311.833 123.5,313C 92.8333,313.667 62.1667,313.667 31.5,313C 27,311.833 24.1667,309 23,304.5C 22.3333,212.833 22.3333,121.167 23,29.5C 24.3513,24.9848 27.1846,21.9848 31.5,20.5 Z M 132.5,98.5 C 156.169,98.3334 179.836,98.5 203.5,99C 204.416,99.3742 205.25,99.8742 206,100.5C 206.82,112.076 206.654,123.576 205.5,135C 181.219,136.461 156.885,136.961 132.5,136.5C 132.5,123.833 132.5,111.167 132.5,98.5 Z"/></g>
<g><path style="opacity:1" fill="#fefffe" d="M 350.5,20.5 C 417.501,20.3333 484.501,20.5 551.5,21C 569.368,23.1861 584.868,30.3528 598,42.5C 604.52,51.5409 608.853,61.5409 611,72.5C 611.667,91.1667 611.667,109.833 611,128.5C 609.347,139.968 604.847,150.135 597.5,159C 604.312,168.125 608.812,178.292 611,189.5C 611.667,213.5 611.667,237.5 611,261.5C 608.295,275.745 601.795,287.912 591.5,298C 579.431,306.357 566.097,311.357 551.5,313C 484.5,313.667 417.5,313.667 350.5,313C 346,311.833 343.167,309 342,304.5C 341.333,284.5 341.333,264.5 342,244.5C 343.167,240 346,237.167 350.5,236C 399.833,235.667 449.167,235.333 498.5,235C 499.416,234.626 500.25,234.126 501,233.5C 501.667,223.167 501.667,212.833 501,202.5C 500.25,201.874 499.416,201.374 498.5,201C 461.167,200.667 423.833,200.333 386.5,200C 382,198.833 379.167,196 378,191.5C 377.333,171.5 377.333,151.5 378,131.5C 379.167,127 382,124.167 386.5,123C 423.167,122.667 459.833,122.333 496.5,122C 498.101,121.727 499.601,121.227 501,120.5C 501.667,113.833 501.667,107.167 501,100.5C 500.25,99.8742 499.416,99.3742 498.5,99C 449.167,98.6667 399.833,98.3333 350.5,98C 346,96.8333 343.167,94 342,89.5C 341.333,69.5 341.333,49.5 342,29.5C 343.351,24.9848 346.185,21.9848 350.5,20.5 Z"/></g>
<g><path style="opacity:1" fill="#fefffe" d="M 691.5,20.5 C 763.834,20.3333 836.167,20.5 908.5,21C 913,22.1667 915.833,25 917,29.5C 917.667,49.5 917.667,69.5 917,89.5C 915.833,94 913,96.8333 908.5,98C 853.138,98.179 797.805,98.679 742.5,99.5C 742.167,144.505 742.5,189.505 743.5,234.5C 798.459,235.329 853.459,235.829 908.5,236C 913,237.167 915.833,240 917,244.5C 917.667,264.5 917.667,284.5 917,304.5C 915.833,309 913,311.833 908.5,313C 836.167,313.667 763.833,313.667 691.5,313C 677.251,311.141 664.251,306.141 652.5,298C 641.962,288.428 635.462,276.595 633,262.5C 632.333,198.833 632.333,135.167 633,71.5C 636.621,50.0793 648.455,35.2459 668.5,27C 676.092,24.0738 683.759,21.9071 691.5,20.5 Z"/></g>
<g><path style="opacity:1" fill="#000000" d="M 33.5,25.5 C 107.167,25.3333 180.834,25.5 254.5,26C 267.05,27.4057 278.717,31.4057 289.5,38C 301.395,47.278 308.562,59.4447 311,74.5C 311.961,104.873 311.627,135.207 310,165.5C 306.552,179.259 299.052,190.092 287.5,198C 280.838,201.832 273.838,204.832 266.5,207C 284.543,234.253 302.709,261.419 321,288.5C 324.482,294.653 324.315,300.653 320.5,306.5C 319.5,307 318.5,307.5 317.5,308C 285.5,308.667 253.5,308.667 221.5,308C 220.5,307.5 219.5,307 218.5,306.5C 196.709,274.42 175.043,242.253 153.5,210C 144.84,209.5 136.173,209.334 127.5,209.5C 127.667,240.502 127.5,271.502 127,302.5C 126.167,305.333 124.333,307.167 121.5,308C 92.1667,308.667 62.8333,308.667 33.5,308C 30.6667,307.167 28.8333,305.333 28,302.5C 27.3333,212.167 27.3333,121.833 28,31.5C 29.0209,28.6499 30.8542,26.6499 33.5,25.5 Z M 132.5,98.5 C 132.5,111.167 132.5,123.833 132.5,136.5C 156.885,136.961 181.219,136.461 205.5,135C 206.654,123.576 206.82,112.076 206,100.5C 205.25,99.8742 204.416,99.3742 203.5,99C 179.836,98.5 156.169,98.3334 132.5,98.5 Z"/></g>
<g><path style="opacity:1" fill="#000000" d="M 352.5,25.5 C 418.168,25.3333 483.834,25.5 549.5,26C 566.698,27.8514 581.532,34.6847 594,46.5C 600.188,54.8786 604.188,64.2119 606,74.5C 606.922,93.8714 606.589,113.205 605,132.5C 602.246,142.679 597.412,151.679 590.5,159.5C 598.601,168.702 603.767,179.369 606,191.5C 606.667,214.167 606.667,236.833 606,259.5C 602.961,281.203 591.128,295.703 570.5,303C 563.686,305.454 556.686,307.12 549.5,308C 483.833,308.667 418.167,308.667 352.5,308C 349.667,307.167 347.833,305.333 347,302.5C 346.333,283.833 346.333,265.167 347,246.5C 347.833,243.667 349.667,241.833 352.5,241C 401.833,240.667 451.167,240.333 500.5,240C 503.81,240.229 505.644,238.729 506,235.5C 506.667,223.833 506.667,212.167 506,200.5C 505.644,197.271 503.81,195.771 500.5,196C 463.167,195.667 425.833,195.333 388.5,195C 385.667,194.167 383.833,192.333 383,189.5C 382.333,170.833 382.333,152.167 383,133.5C 383.833,130.667 385.667,128.833 388.5,128C 427.2,127.964 465.866,127.297 504.5,126C 505.191,124.933 505.691,123.766 506,122.5C 506.667,114.5 506.667,106.5 506,98.5C 505.644,95.2712 503.81,93.7712 500.5,94C 451.167,93.6667 401.833,93.3333 352.5,93C 349.667,92.1667 347.833,90.3333 347,87.5C 346.333,68.8333 346.333,50.1667 347,31.5C 348.021,28.6499 349.854,26.6499 352.5,25.5 Z"/></g>
<g><path style="opacity:1" fill="#000000" d="M 693.5,25.5 C 764.501,25.3333 835.501,25.5 906.5,26C 909.333,26.8333 911.167,28.6667 912,31.5C 912.667,50.1667 912.667,68.8333 912,87.5C 911.167,90.3333 909.333,92.1667 906.5,93C 852.167,93.3333 797.833,93.6667 743.5,94C 741.744,94.2022 740.078,94.7022 738.5,95.5C 737.838,119.292 737.505,143.125 737.5,167C 737.505,190.875 737.838,214.708 738.5,238.5C 739.729,239.281 741.062,239.781 742.5,240C 797.167,240.333 851.833,240.667 906.5,241C 909.333,241.833 911.167,243.667 912,246.5C 912.667,265.167 912.667,283.833 912,302.5C 911.167,305.333 909.333,307.167 906.5,308C 835.5,308.667 764.5,308.667 693.5,308C 675.935,306.3 661.101,299.133 649,286.5C 643.196,278.761 639.53,270.094 638,260.5C 637.333,198.167 637.333,135.833 638,73.5C 641.294,53.7391 652.127,39.9058 670.5,32C 678.092,29.0738 685.759,26.9071 693.5,25.5 Z"/></g>
<g><path style="opacity:1" fill="#fcbf05" d="M 37.5,35.5 C 108.501,35.3333 179.501,35.5 250.5,36C 266.358,37.1815 279.858,43.3481 291,54.5C 296.526,61.5562 299.859,69.5562 301,78.5C 301.667,104.5 301.667,130.5 301,156.5C 297.707,176.796 286.207,189.962 266.5,196C 260.557,197.589 254.557,198.922 248.5,200C 270.291,232.414 291.957,264.914 313.5,297.5C 284.167,298.833 254.833,298.833 225.5,297.5C 203.957,264.914 182.291,232.414 160.5,200C 146.171,199.5 131.837,199.333 117.5,199.5C 117.5,232.5 117.5,265.5 117.5,298.5C 90.8333,298.5 64.1667,298.5 37.5,298.5C 37.5,210.833 37.5,123.167 37.5,35.5 Z M 132.5,98.5 C 132.5,111.167 132.5,123.833 132.5,136.5C 156.885,136.961 181.219,136.461 205.5,135C 206.654,123.576 206.82,112.076 206,100.5C 205.25,99.8742 204.416,99.3742 203.5,99C 179.836,98.5 156.169,98.3334 132.5,98.5 Z"/></g>
<g><path style="opacity:1" fill="#fcbf05" d="M 356.5,35.5 C 419.501,35.3333 482.501,35.5 545.5,36C 583.363,40.8577 600.363,62.3577 596.5,100.5C 599.141,118.731 594.974,135.064 584,149.5C 579.923,153.412 575.423,156.745 570.5,159.5C 585.005,167.182 593.505,179.182 596,195.5C 596.667,215.5 596.667,235.5 596,255.5C 593.622,273.877 583.789,286.377 566.5,293C 559.686,295.454 552.686,297.12 545.5,298C 482.501,298.5 419.501,298.667 356.5,298.5C 356.5,282.5 356.5,266.5 356.5,250.5C 405.834,250.667 455.168,250.5 504.5,250C 508.906,249.881 512.406,248.047 515,244.5C 517,226.833 517,209.167 515,191.5C 513.457,189.622 511.624,188.122 509.5,187C 470.54,185.53 431.54,185.03 392.5,185.5C 392.5,169.5 392.5,153.5 392.5,137.5C 431.53,137.957 470.53,137.457 509.5,136C 513.67,134.17 515.836,131.003 516,126.5C 516.894,114.118 516.561,101.785 515,89.5C 512.406,85.9527 508.906,84.1193 504.5,84C 455.168,83.5 405.834,83.3333 356.5,83.5C 356.5,67.5 356.5,51.5 356.5,35.5 Z"/></g>
<g><path style="opacity:1" fill="#fcbf05" d="M 697.5,35.5 C 765.833,35.5 834.167,35.5 902.5,35.5C 902.5,51.5 902.5,67.5 902.5,83.5C 846.462,83.0206 790.462,83.5206 734.5,85C 730.594,85.9729 728.427,88.4729 728,92.5C 727.333,142.167 727.333,191.833 728,241.5C 728.427,245.527 730.594,248.027 734.5,249C 790.454,250.484 846.454,250.984 902.5,250.5C 902.5,266.5 902.5,282.5 902.5,298.5C 834.166,298.667 765.833,298.5 697.5,298C 677.304,296.832 662.137,287.665 652,270.5C 650.046,266.019 648.713,261.352 648,256.5C 647.333,196.833 647.333,137.167 648,77.5C 650.641,61.0543 659.474,49.221 674.5,42C 682.092,39.0738 689.759,36.9071 697.5,35.5 Z"/></g>
<g><path style="opacity:1" fill="#000000" d="M 117.5,83.5 C 149.875,83.0366 182.208,83.5366 214.5,85C 216.624,86.1217 218.457,87.6217 220,89.5C 221.094,98.7848 221.594,108.118 221.5,117.5C 221.594,126.882 221.094,136.215 220,145.5C 218.457,147.378 216.624,148.878 214.5,150C 182.198,151.448 149.865,151.948 117.5,151.5C 117.5,128.833 117.5,106.167 117.5,83.5 Z M 132.5,98.5 C 132.5,111.167 132.5,123.833 132.5,136.5C 156.885,136.961 181.219,136.461 205.5,135C 206.654,123.576 206.82,112.076 206,100.5C 205.25,99.8742 204.416,99.3742 203.5,99C 179.836,98.5 156.169,98.3334 132.5,98.5 Z"/></g>
<g><path style="opacity:1" fill="#fefffe" d="M 127.5,93.5 C 154.884,93.0347 182.218,93.5347 209.5,95C 210.191,96.0674 210.691,97.2341 211,98.5C 211.667,111.167 211.667,123.833 211,136.5C 210.691,137.766 210.191,138.933 209.5,140C 182.204,141.447 154.871,141.947 127.5,141.5C 127.5,125.5 127.5,109.5 127.5,93.5 Z M 132.5,98.5 C 132.5,111.167 132.5,123.833 132.5,136.5C 156.885,136.961 181.219,136.461 205.5,135C 206.654,123.576 206.82,112.076 206,100.5C 205.25,99.8742 204.416,99.3742 203.5,99C 179.836,98.5 156.169,98.3334 132.5,98.5 Z"/></g>
</svg>
